<svg id="Layer_1" data-name="Layer 1" xmlns="http://www.w3.org/2000/svg" viewBox="0 0 169.93 102"><defs><style>.cls-1{fill:#c09859;}</style></defs><path class="cls-1" d="M37.15,3.53a29,29,0,0,0-7.43,1.13,5.07,5.07,0,0,0-3.17,3.26,25.33,25.33,0,0,0-.85,7.77v70.1a25.33,25.33,0,0,0,.85,7.77,4.87,4.87,0,0,0,3.17,3.18,25.54,25.54,0,0,0,7.43.78H47.46q8.76,0,13.36-2.48a14.57,14.57,0,0,0,6.71-8q2.11-5.52,3.11-16h3.25q-.42,4.38-.42,11.59,0,8.05,1,18.09-9.6-.43-32.36-.43-27.14,0-41,.43V97.94a28.51,28.51,0,0,0,7.42-1.13,5.08,5.08,0,0,0,3.17-3.25,25.33,25.33,0,0,0,.85-7.77V15.69a25.33,25.33,0,0,0-.85-7.77A5.07,5.07,0,0,0,8.53,4.66,29,29,0,0,0,1.11,3.53V.71q5.92.42,18.08.42,11.31,0,18-.42Z"/><path class="cls-1" d="M168.15,97.94v2.83q-5.66-.43-15.12-.43-12.15,0-18.09.43V97.94a23.31,23.31,0,0,0,7.7-1.34A3.89,3.89,0,0,0,145,92.71a19.47,19.47,0,0,0-1.7-6.64l-8.62-23.18h-34.2l-5.8,15q-2.82,7.63-2.82,11.59,0,4.38,3,6.36t9.25,2.12v2.83q-8.05-.43-16.25-.43-6.36,0-10.6.43V97.94q7.06-1.69,11.17-12.29L121.66,0h2.26L158.4,88.9Q161.79,97.66,168.15,97.94ZM133.53,60.07,117.7,17.81,101.59,60.07Z"/></svg>