<svg xmlns="http://www.w3.org/2000/svg" viewBox="0 0 247.46 101.48"><defs><style>.cls-1{fill:#65a2ab;}.cls-2{fill:#727271;}</style></defs><g id="Layer_3" data-name="Layer 3"><path class="cls-1" d="M27.72,66.66h-5.9l-2.61-3.15a13.1,13.1,0,0,1-8.86,3.42q-4.95,0-7.65-2.57a9.15,9.15,0,0,1-2.7-7,7.66,7.66,0,0,1,1.69-5.06,20.17,20.17,0,0,1,4.65-4c-.66-.75-1.17-1.38-1.55-1.91a12.72,12.72,0,0,1-1.17-2.18A7,7,0,0,1,3,41.46a6.66,6.66,0,0,1,2.15-5.11,8,8,0,0,1,5.67-2,7.61,7.61,0,0,1,5.49,2,6.8,6.8,0,0,1,2.12,5.13q0,3.33-3.42,5.67l-2.34,1.62,6.75,8.06a11.17,11.17,0,0,0,1.71-6.44h4.41q-.22,6.39-3.2,9.86ZM16.47,60.27,8.86,51.22a23.86,23.86,0,0,0-2.2,1.67,7.27,7.27,0,0,0-1.44,1.84,5.36,5.36,0,0,0,1,6.48,5.85,5.85,0,0,0,4.16,1.53A9,9,0,0,0,16.47,60.27ZM14,41.55a3.11,3.11,0,0,0-.9-2.27,3.07,3.07,0,0,0-2.3-.93,3.07,3.07,0,0,0-2.29.88,3.12,3.12,0,0,0-.86,2.27q0,1.53,2.48,4.41l1.53-1Q14,43.3,14,41.55Z"/><path class="cls-1" d="M64.34,66.66H59.17L57,60.22H44.32l-2.21,6.44H36.94l11.74-32H52.6ZM55.61,56.08,50.75,41.86l-5,14.22Z"/><path class="cls-1" d="M90.33,58.84a7.09,7.09,0,0,1-2.73,5.89,11.15,11.15,0,0,1-7.12,2.16A16.06,16.06,0,0,1,75,66.06a11.56,11.56,0,0,1-4.26-2.79l2.74-2.73a9.52,9.52,0,0,0,7,2.65,6.93,6.93,0,0,0,4.18-1.09A3.67,3.67,0,0,0,86.21,59a3.56,3.56,0,0,0-1.08-2.85,5.47,5.47,0,0,0-3-1.15l-3.23-.47a9.42,9.42,0,0,1-5.16-2.19,6.75,6.75,0,0,1-2-5.28,7.4,7.4,0,0,1,2.46-5.81A9.72,9.72,0,0,1,80.86,39a13.81,13.81,0,0,1,4.74.73,11.22,11.22,0,0,1,3.77,2.38l-2.62,2.62a8.42,8.42,0,0,0-6-2.11A5.28,5.28,0,0,0,77,43.81a4,4,0,0,0-1.29,3.1,3.12,3.12,0,0,0,1,2.54,5.72,5.72,0,0,0,3,1.23l3.28.5a10,10,0,0,1,5.08,2A7.23,7.23,0,0,1,90.33,58.84Z"/><path class="cls-1" d="M116.34,58.84a7.07,7.07,0,0,1-2.74,5.89,11.13,11.13,0,0,1-7.12,2.16,16.14,16.14,0,0,1-5.45-.83,11.61,11.61,0,0,1-4.25-2.79l2.73-2.73a9.53,9.53,0,0,0,7,2.65,6.93,6.93,0,0,0,4.18-1.09A3.69,3.69,0,0,0,112.22,59a3.56,3.56,0,0,0-1.08-2.85,5.53,5.53,0,0,0-3-1.15l-3.24-.47a9.48,9.48,0,0,1-5.16-2.19,6.75,6.75,0,0,1-2-5.28,7.41,7.41,0,0,1,2.47-5.81,9.71,9.71,0,0,1,6.7-2.19,13.71,13.71,0,0,1,4.73.73,11.26,11.26,0,0,1,3.78,2.38l-2.62,2.62a8.45,8.45,0,0,0-6.05-2.11A5.27,5.27,0,0,0,103,43.81a4,4,0,0,0-1.29,3.1,3.12,3.12,0,0,0,1,2.54,5.69,5.69,0,0,0,3,1.23l3.27.5a10,10,0,0,1,5.09,2A7.27,7.27,0,0,1,116.34,58.84Z"/><path class="cls-1" d="M143.12,45.87a40.42,40.42,0,0,1,.44,7.08,40.63,40.63,0,0,1-.44,7.09,8,8,0,0,1-2.33,4.08,10.45,10.45,0,0,1-14.17,0A8,8,0,0,1,124.29,60a40.63,40.63,0,0,1-.44-7.09,40.42,40.42,0,0,1,.44-7.08,8,8,0,0,1,2.33-4.08,10.45,10.45,0,0,1,14.17,0A8,8,0,0,1,143.12,45.87Zm-4,12.9a38,38,0,0,0,.3-5.82,38.22,38.22,0,0,0-.3-5.83,5.2,5.2,0,0,0-1.31-2.71,5.45,5.45,0,0,0-9.47,2.75A36.25,36.25,0,0,0,128,53a35.85,35.85,0,0,0,.31,5.78,5.37,5.37,0,0,0,1.3,2.73,5.69,5.69,0,0,0,8.17,0A5.21,5.21,0,0,0,139.1,58.77Z"/><path class="cls-1" d="M171.06,58.46a10,10,0,0,1-3.33,6.22,9.73,9.73,0,0,1-6.45,2.21,9.59,9.59,0,0,1-7.08-2.77,8.32,8.32,0,0,1-2.31-4.1,38.25,38.25,0,0,1-.46-7.07,38.12,38.12,0,0,1,.46-7.06,8.27,8.27,0,0,1,2.31-4.1,10.47,10.47,0,0,1,13.53-.56,10.31,10.31,0,0,1,3.33,6.22h-4.23A6.21,6.21,0,0,0,164.94,44a5.77,5.77,0,0,0-7.7.43,5.26,5.26,0,0,0-1.35,2.75,37.51,37.51,0,0,0-.31,5.79,37.57,37.57,0,0,0,.31,5.8A5.63,5.63,0,0,0,165,61.92a6.3,6.3,0,0,0,1.94-3.46Z"/><path class="cls-1" d="M183.25,66.66h-4.16V39.25h4.16Z"/><path class="cls-1" d="M213.94,66.66h-4.43l-1.89-5.51H196.8l-1.88,5.51h-4.43l10-27.41h3.35Zm-7.47-9-4.16-12.16L198,57.61Z"/><path class="cls-1" d="M235.35,43H227.8V66.66h-4.16V43H216.1V39.25h19.25Z"/><path class="cls-1" d="M247.17,66.66H243V39.25h4.16Z"/><path class="cls-1" d="M15.09,95.64H4l-2,5.61H.4l8.35-23h1.62q2.12,5.77,4.21,11.49t4.17,11.48H17.07ZM9.51,80.16,9,81.58c-.25.71-.55,1.54-.88,2.5s-.68,2-1.07,3S6.3,89.22,6,90.18s-.64,1.81-.9,2.56S4.6,94,4.49,94.29H14.63l-3-8.38-1-2.87c-.35-1-.68-1.91-1-2.88Z"/><path class="cls-1" d="M34.38,86.57a4.71,4.71,0,0,0-1.11-.38,4.82,4.82,0,0,0-1-.12,5.2,5.2,0,0,0-1.95.36,4.52,4.52,0,0,0-1.53,1,4.78,4.78,0,0,0-1,1.62,6,6,0,0,0-.36,2.13v10H25.93V84.88h1.45v2.81h.1a4.76,4.76,0,0,1,2.24-2.35,6.89,6.89,0,0,1,2.81-.62,11.14,11.14,0,0,1,1.32.08,4.18,4.18,0,0,1,1.12.31Z"/><path class="cls-1" d="M49.84,101a7,7,0,0,1-2.64.48,8.38,8.38,0,0,1-2.66-.44,6.2,6.2,0,0,1-2.32-1.44A7,7,0,0,1,40.57,97a12.45,12.45,0,0,1,0-7.82,7,7,0,0,1,1.65-2.59,6.2,6.2,0,0,1,2.32-1.44,8.38,8.38,0,0,1,2.66-.44,6.79,6.79,0,0,1,2.64.49A7.82,7.82,0,0,1,52,86.53l-.92,1.09a5.5,5.5,0,0,0-1.63-1.1,4.8,4.8,0,0,0-2-.45,5.55,5.55,0,0,0-4.46,1.82,7.86,7.86,0,0,0-1.55,5.24,8,8,0,0,0,1.55,5.27,5.53,5.53,0,0,0,4.46,1.83,4.45,4.45,0,0,0,2-.5,8.83,8.83,0,0,0,1.63-1l.92,1A7.39,7.39,0,0,1,49.84,101Z"/><path class="cls-1" d="M70.16,101.25V90.79A4.87,4.87,0,0,0,69,87.31a4.54,4.54,0,0,0-3.42-1.21,5.25,5.25,0,0,0-2,.38,4.89,4.89,0,0,0-2.69,2.74,5.5,5.5,0,0,0-.4,2.13v9.9H59.07V77.39h1.45V87.72h.1a5,5,0,0,1,2.32-2.26,6.9,6.9,0,0,1,3-.71,5.84,5.84,0,0,1,4.24,1.44,5.42,5.42,0,0,1,1.48,4.1v11Z"/><path class="cls-1" d="M80.07,79.87V78.25h1.65v1.62Zm.13,21.38V84.88h1.46v16.37Z"/><path class="cls-1" d="M94.63,101.25a3,3,0,0,1-2.61-1,4.78,4.78,0,0,1-.72-2.8V86.14H89.05V84.88H91.3V80.56h1.45v4.32h3v1.26h-3V97.32a7,7,0,0,0,.08,1.06,2,2,0,0,0,.35.86,1.64,1.64,0,0,0,.74.56,3.31,3.31,0,0,0,1.24.2h1v1.25Z"/><path class="cls-1" d="M103.39,93.3a10.94,10.94,0,0,0,.25,2.65,6,6,0,0,0,.94,2.22,4.84,4.84,0,0,0,1.75,1.5,5.8,5.8,0,0,0,2.67.56,5.61,5.61,0,0,0,2.08-.4,7.93,7.93,0,0,0,1.88-1l.83,1a6.77,6.77,0,0,1-2.25,1.24,8.17,8.17,0,0,1-2.47.38,9.78,9.78,0,0,1-2.51-.33,5.33,5.33,0,0,1-2.26-1.25,6.91,6.91,0,0,1-1.65-2.54,11.48,11.48,0,0,1-.65-4.19,11.78,11.78,0,0,1,.62-4.11,7.32,7.32,0,0,1,1.55-2.61,5.11,5.11,0,0,1,2.12-1.35,7.33,7.33,0,0,1,2.33-.38,6.44,6.44,0,0,1,2.83.58,5.78,5.78,0,0,1,2,1.56,6.68,6.68,0,0,1,1.21,2.36,10.81,10.81,0,0,1,.39,3V93.3Zm10.23-1.19a7.06,7.06,0,0,0-1.4-4.63A4.61,4.61,0,0,0,108.6,86a4.51,4.51,0,0,0-3.67,1.6,7.49,7.49,0,0,0-1.51,4.54Z"/><path class="cls-1" d="M131.77,101a7,7,0,0,1-2.64.48,8.32,8.32,0,0,1-2.65-.44,6.23,6.23,0,0,1-2.33-1.44A7.22,7.22,0,0,1,122.5,97a12.45,12.45,0,0,1,0-7.82,7.22,7.22,0,0,1,1.65-2.59,6.23,6.23,0,0,1,2.33-1.44,8.32,8.32,0,0,1,2.65-.44,6.79,6.79,0,0,1,2.64.49,8,8,0,0,1,2.15,1.32L133,87.62a5.37,5.37,0,0,0-1.63-1.1,4.8,4.8,0,0,0-2-.45,5.53,5.53,0,0,0-4.45,1.82,7.81,7.81,0,0,0-1.55,5.24,7.93,7.93,0,0,0,1.55,5.27,5.51,5.51,0,0,0,4.45,1.83,4.45,4.45,0,0,0,2-.5,8.5,8.5,0,0,0,1.63-1l.93,1A7.58,7.58,0,0,1,131.77,101Z"/><path class="cls-1" d="M146,101.25a3,3,0,0,1-2.61-1,4.7,4.7,0,0,1-.73-2.8V86.14h-2.24V84.88h2.24V80.56h1.46v4.32h3v1.26h-3V97.32a5.93,5.93,0,0,0,.08,1.06,2,2,0,0,0,.34.86,1.73,1.73,0,0,0,.75.56,3.31,3.31,0,0,0,1.24.2h1v1.25Z"/><path class="cls-1" d="M166.7,96.84a4.16,4.16,0,0,1-.41,1.83,4.3,4.3,0,0,1-1.21,1.46,5.82,5.82,0,0,1-2,1,9.29,9.29,0,0,1-2.72.36A12.64,12.64,0,0,1,157,101a8.68,8.68,0,0,1-3-1.52l.86-1.12a7.64,7.64,0,0,0,2.66,1.4,10.66,10.66,0,0,0,3.15.45,8,8,0,0,0,1.55-.17,4.66,4.66,0,0,0,1.5-.56,3.34,3.34,0,0,0,1.12-1.06,2.86,2.86,0,0,0,.45-1.65,2.47,2.47,0,0,0-.4-1.44,3,3,0,0,0-1-.94,6.09,6.09,0,0,0-1.47-.58,13.71,13.71,0,0,0-1.65-.32c-.72-.1-1.43-.23-2.13-.38a6.65,6.65,0,0,1-1.84-.64,3.59,3.59,0,0,1-1.31-1.16,3.33,3.33,0,0,1-.49-1.92,4.34,4.34,0,0,1,.43-2,4,4,0,0,1,1.2-1.47,5.75,5.75,0,0,1,1.87-.93,8.13,8.13,0,0,1,2.37-.33,10.75,10.75,0,0,1,3,.37,7.85,7.85,0,0,1,2.34,1.15l-.79,1.15a10.38,10.38,0,0,0-2-1,7.72,7.72,0,0,0-2.44-.36,5.89,5.89,0,0,0-3.22.82,2.77,2.77,0,0,0-1.3,2.41,2.18,2.18,0,0,0,.38,1.33,2.73,2.73,0,0,0,1,.83,6.45,6.45,0,0,0,1.5.47c.58.11,1.18.21,1.82.3s1.32.25,2,.43a6.08,6.08,0,0,1,1.8.77,4.34,4.34,0,0,1,1.3,1.33A3.89,3.89,0,0,1,166.7,96.84Z"/><path class="cls-2" d="M37.29.28,25.29,33h5.29l2.25-6.58H45.76L48,33H53.3L41.29.28Zm-3,21.94L39.41,7.68l5,14.54Z"/><polygon class="cls-2" points="56.68 4.74 71.17 4.74 56.04 28.75 56.04 33.03 77.01 33.03 77.01 28.57 61.79 28.57 77.01 4.32 77.01 0.28 56.68 0.28 56.68 4.74"/><polygon class="cls-2" points="81.24 4.74 95.73 4.74 80.6 28.75 80.6 33.03 101.57 33.03 101.57 28.57 86.35 28.57 101.57 4.32 101.57 0.28 81.24 0.28 81.24 4.74"/><polygon class="cls-2" points="7.19 0.28 2.22 0.28 2.22 33.03 22.96 33.03 22.96 28.57 7.19 28.57 7.19 0.28"/><path class="cls-2" d="M183.41,3.31a12.48,12.48,0,0,0-16.93,0,9.57,9.57,0,0,0-2.79,4.88,48.18,48.18,0,0,0-.52,8.46,48.23,48.23,0,0,0,.52,8.47A9.59,9.59,0,0,0,166.48,30a12.48,12.48,0,0,0,16.93,0,9.57,9.57,0,0,0,2.78-4.87,48,48,0,0,0,.53-8.47,47.94,47.94,0,0,0-.53-8.46A9.55,9.55,0,0,0,183.41,3.31Zm-2,20.29a6.14,6.14,0,0,1-1.56,3.22,6.54,6.54,0,0,1-11.32-3.27,44.2,44.2,0,0,1-.37-6.9,44.59,44.59,0,0,1,.37-6.92,6.24,6.24,0,0,1,6.44-5.31,6.46,6.46,0,0,1,4.88,2,6.17,6.17,0,0,1,1.56,3.24,43.91,43.91,0,0,1,.37,7A43.44,43.44,0,0,1,181.38,23.6Z"/><path class="cls-2" d="M157.06,15.48a8.77,8.77,0,0,0,1.81-5.64,9.12,9.12,0,0,0-2.78-6.9A10.27,10.27,0,0,0,148.71.28H136V33h5V19.23h6.21l6.9,13.8h5.8l-7.55-14.49A8.8,8.8,0,0,0,157.06,15.48ZM141,15V4.74h7.36a5.78,5.78,0,0,1,4,1.38,4.85,4.85,0,0,1,1.52,3.77,4.8,4.8,0,0,1-1.52,3.75,5.87,5.87,0,0,1-4,1.36Z"/><polygon class="cls-2" points="212.47 0.28 212.47 0.28 189.47 0.28 189.47 4.74 198.49 4.74 198.49 33.03 203.46 33.03 203.46 4.74 210.83 4.74 212.47 0.28"/><path class="cls-2" d="M116.29.28,104.29,33h5.29l2.25-6.58h12.93L127,33h5.29L120.29.28Zm-3,21.94,5.11-14.54,5,14.54Z"/><polygon class="cls-2" points="215.3 4.64 215.3 4.74 224.31 4.74 224.31 33.03 229.28 33.03 229.28 4.74 238.3 4.74 238.3 0.28 216.91 0.28 215.3 4.64"/><rect class="cls-2" x="242.49" y="0.28" width="4.97" height="32.75"/></g></svg>