<svg id="e0qn3J8j7xw1" xmlns="http://www.w3.org/2000/svg" xmlns:xlink="http://www.w3.org/1999/xlink" viewBox="0 0 375.07 102.63" shape-rendering="geometricPrecision" text-rendering="geometricPrecision"><g id="e0qn3J8j7xw2" transform="translate(136.560002 0.000001)" opacity="0"><path id="e0qn3J8j7xw3" d="M14.71,15.39v72.54h72.54l14.7,14.7h-101.95L0,0.68Z" fill="#65a2ab"/><polygon id="e0qn3J8j7xw4" points="50.93,15.39 87.25,15.39 87.25,51.7 101.95,66.41 101.95,0.68 36.23,0.68 50.93,15.39" fill="#eedfb0"/><polygon id="e0qn3J8j7xw5" points="16.98,0.68 0,0.68 14.71,15.39 31.69,15.39 16.98,0.68" fill="#eedfb0"/><polygon id="e0qn3J8j7xw6" points="87.25,70.95 87.25,87.93 101.95,102.63 101.95,85.65 87.25,70.95" fill="#eedfb0"/><polygon id="e0qn3J8j7xw7" points="87.25,51.7 50.93,15.39 31.69,15.39 87.25,70.95 87.25,51.7" fill="#727271"/></g><g id="e0qn3J8j7xw8" opacity="0"><path d="M155.33,66.66h-5.89l-2.61-3.15c-2.414977,2.199441-5.563557,3.418936-8.83,3.42q-5,0-7.65-2.57c-1.859227-1.840114-2.84198-4.387992-2.7-7-.056731-1.834032.542498-3.628172,1.69-5.06c1.343131-1.560301,2.914175-2.908837,4.66-4-.550366-.608563-1.067773-1.246141-1.55-1.91-.467528-.682315-.859814-1.41324-1.17-2.18-.396811-.876908-.604647-1.827505-.61-2.79-.056131-1.936165.732179-3.801102,2.16-5.11c1.558062-1.378537,3.591847-2.095922,5.67-2c2.023224-.090417,3.999034.629368,5.49,2c1.40159,1.331631,2.169071,3.197591,2.11,5.13q0,3.33-3.42,5.67l-2.34,1.62l6.75,8.06c1.211904-1.922707,1.808452-4.169356,1.71-6.44h4.41q-.22,6.39-3.19,9.86Zm-11.25-6.39l-7.6-9.05c-.767884.514104-1.505754,1.07168-2.21,1.67-.576064.531684-1.062343,1.15304-1.44,1.84-.448184.781728-.679485,1.668958-.67,2.57-.044037,1.479087.553999,2.904893,1.64,3.91c1.14343,1.043951,2.653007,1.593869,4.2,1.53c2.265308-.028756,4.436443-.91078,6.08-2.47Zm-2.43-18.72c.022029-.847724-.303064-1.667681-.9-2.27-.594237-.624654-1.428495-.963457-2.29-.93-.848042-.043577-1.674826.27428-2.275273.874727s-.918304,1.427231-.874727,2.275273q0,1.53,2.47,4.41l1.53-1q2.34-1.61,2.34-3.36Z" fill="#65a2ab"/><path d="M192,66.66h-5.18l-2.2-6.44h-12.69l-2.2,6.44h-5.18l11.75-32h3.91Zm-8.73-10.58l-4.86-14.22-5,14.22Z" fill="#65a2ab"/><path d="M218,58.84c.09106,2.290537-.929382,4.484115-2.74,5.89-2.055274,1.515459-4.569153,2.278097-7.12,2.16-1.850875.038729-3.694564-.242053-5.45-.83-1.606762-.601896-3.058783-1.555106-4.25-2.79l2.73-2.73c1.874291,1.801007,4.402911,2.75827,7,2.65c1.47073.091259,2.932049-.290717,4.17-1.09.980111-.722225,1.538267-1.88349,1.49-3.1.085415-1.063862-.310987-2.109921-1.08-2.85-.864153-.671782-1.908227-1.07201-3-1.15l-3.24-.47c-1.901434-.193168-3.700082-.956547-5.16-2.19-1.406084-1.383255-2.136792-3.312322-2-5.28-.088392-2.208857.81805-4.341014,2.47-5.81c1.857994-1.55398,4.230159-2.356592,6.65-2.25c1.610591-.036635,3.215063.210467,4.74.73c1.412012.536715,2.701106,1.353028,3.79,2.4l-2.61,2.62c-1.661468-1.470298-3.834535-2.228178-6.05-2.11-1.330151-.086643-2.644108.331109-3.68,1.17-.863881.794101-1.335511,1.927474-1.29,3.1-.068415.9544.299302,1.8884,1,2.54.861593.688803,1.902853,1.115719,3,1.23l3.27.5c1.847066.178405,3.60706.871316,5.08,2c1.556766,1.458615,2.391,3.529564,2.28,5.66Z" fill="#65a2ab"/><path d="M244,58.84c.095104,2.289103-.921797,4.483075-2.73,5.89-2.056012,1.513986-4.569358,2.276462-7.12,2.16-1.850927.039531-3.694753-.241271-5.45-.83-1.609732-.601787-3.065037-1.55491-4.26-2.79l2.74-2.73c1.873655,1.802013,4.402721,2.759445,7,2.65c1.473879.091302,2.938388-.290591,4.18-1.09.972572-.726596,1.522892-1.887136,1.47-3.1.085415-1.063862-.310987-2.109921-1.08-2.85-.862339-.674993-1.90743-1.075611-3-1.15l-3.23-.47c-1.90238-.189475-3.702081-.953301-5.16-2.19-1.406084-1.383255-2.136792-3.312322-2-5.28-.08806-2.206723.814105-4.337447,2.46-5.81c1.880646-1.542605,4.271318-2.324034,6.7-2.19c1.610483-.034977,3.214668.212081,4.74.73c1.389241.524803,2.660478,1.320176,3.74,2.34l-2.62,2.62c-1.647233-1.460702-3.80106-2.218131-6-2.11-1.330151-.086643-2.644108.331109-3.68,1.17-.863881.794101-1.335511,1.927474-1.29,3.1-.074386.955304.294317,1.89181,1,2.54.860433.690774,1.902296,1.117938,3,1.23l3.27.5c1.847066.178405,3.60706.871316,5.08,2c1.543202,1.465104,2.362631,3.535627,2.24,5.66Z" fill="#65a2ab"/><path d="M270.73,45.87c.359034,2.341993.506296,4.711574.44,7.08.065761,2.371738-.081497,4.744592-.44,7.09-.350791,1.562555-1.162471,2.983866-2.33,4.08-3.996922,3.694822-10.163078,3.694822-14.16,0-1.174455-1.106878-1.98668-2.543087-2.33-4.12-.363088-2.344972-.5137-4.71794-.45-7.09-.06419-2.368748.086426-4.73844.45-7.08.350791-1.562555,1.162471-2.983866,2.33-4.08c3.996922-3.694822,10.163078-3.694822,14.16,0c1.174455,1.106878,1.98668,2.543087,2.33,4.12Zm-4,12.9c.237782-1.913568.328049-3.842589.27-5.77.046921-1.948416-.056721-3.897546-.31-5.83-.155273-1.014185-.611667-1.958327-1.31-2.71-1.079463-1.087008-2.548064-1.698321-4.08-1.698321s-3.000537.611313-4.08,1.698321c-.696847.7684-1.152403,1.72472-1.31,2.75-.25777,1.918626-.361435,3.854819-.31,5.79-.052629,1.931873.051042,3.864838.31,5.78.16189,1.018031.617139,1.966757,1.31,2.73c1.069947,1.104682,2.542109,1.728292,4.08,1.728292s3.010053-.62361,4.08-1.728292c.71049-.757633,1.174269-1.713086,1.33-2.74Z" fill="#65a2ab"/><path d="M298.68,58.46c-.327108,2.408178-1.513248,4.617098-3.34,6.22-4.039977,3.147533-9.763945,2.910621-13.53-.56-1.151849-1.121335-1.954187-2.552344-2.31-4.12-.380818-2.313082-.548189-4.656275-.5-7-.065857-2.362505.08814-4.726015.46-7.06.356703-1.561532,1.159198-2.985875,2.31-4.1c3.766055-3.470621,9.490023-3.707533,13.53-.56c1.813391,1.613486,2.996689,3.817113,3.34,6.22h-4.24c-.218322-1.33725-.868016-2.5664-1.85-3.5-2.299604-1.844865-5.620104-1.659434-7.7.43-.713327.760865-1.180364,1.719337-1.34,2.75-.259375,1.928535-.363043,3.874824-.31,5.82-.051712,1.93851.051953,3.878047.31,5.8.161426,1.030102.628219,1.988072,1.34,2.75c2.093199,2.080347,5.413464,2.260983,7.72.42c1.005485-.913372,1.689374-2.126837,1.95-3.46Z" fill="#65a2ab"/><path d="M310.86,66.66h-4.15v-27.41h4.15Z" fill="#65a2ab"/><path d="M341.55,66.66h-4.43l-1.89-5.51h-10.81l-1.89,5.51h-4.43l10-27.41h3.35Zm-7.47-9L329.92,45.5l-4.27,12.16Z" fill="#65a2ab"/><path d="M363,43h-7.55v23.66h-4.16v-23.66h-7.54v-3.75h19.25Z" fill="#65a2ab"/><path d="M374.78,66.66h-4.16v-27.41h4.16Z" fill="#65a2ab"/><path d="M142.7,95.64h-11l-2,5.61h-1.7l8.34-23h1.66q2.11,5.77,4.21,11.49t4.17,11.48h-1.68Zm-5.58-15.48c-.08.25-.26.72-.51,1.42s-.54,1.54-.87,2.5l-1.07,3c-.39,1.08-.75,2.09-1.09,3.05s-.65,1.81-.91,2.56-.45,1.26-.56,1.55h10.13l-3-8.38-1-2.87c-.34-1-.68-1.91-1-2.88Z" fill="#65a2ab"/><path d="M162,86.57c-.352136-.173832-.72521-.301551-1.11-.38-.328228-.074812-.663391-.115032-1-.12-.663913-.007174-1.322862.115106-1.94.36-.577137.222911-1.101583.563461-1.54,1-.439022.467151-.779157,1.01817-1,1.62-.257369.680091-.382937,1.402955-.37,2.13v10h-1.45v-16.3h1.41v2.81h.1c.449258-1.024256,1.246236-1.856655,2.25-2.35.878744-.403074,1.833238-.614426,2.8-.62.441196.000504.881972.027218,1.32.08.386213.049363.763371.153755,1.12.31Z" fill="#65a2ab"/><path d="M177.45,101c-.840813.328744-1.737281.491738-2.64.48-.90141-.001265-1.796549-.149892-2.65-.44-.873874-.301209-1.669775-.793096-2.33-1.44-.73057-.737929-1.293369-1.624764-1.65-2.6-.839887-2.539012-.839887-5.280988,0-7.82.357909-.971665.920636-1.854976,1.65-2.59.660225-.646904,1.456126-1.138791,2.33-1.44.853451-.290108,1.74859-.438735,2.65-.44.903844-.014027,1.80139.152563,2.64.49.781972.323515,1.50766.769054,2.15,1.32l-.93,1.09c-.470994-.463871-1.023591-.836789-1.63-1.1-.626483-.292272-1.308707-.445772-2-.45-1.683496-.105102-3.32265.565294-4.45,1.82-1.147353,1.500185-1.712221,3.365315-1.59,5.25-.124835,1.886462.428416,3.755457,1.56,5.27c1.122788,1.262149,2.764119,1.937123,4.45,1.83.696614-.007817,1.381662-.179079,2-.5.579219-.270959,1.126012-.606415,1.63-1l.93,1c-.632435.536455-1.348617.965489-2.12,1.27Z" fill="#65a2ab"/><path d="M197.77,101.25v-10.46c.089854-1.266174-.323388-2.516681-1.15-3.48-.922322-.861064-2.161387-1.299446-3.42-1.21-.685287-.007405-1.365183.121775-2,.38-1.229384.516725-2.201409,1.503151-2.7,2.74-.265388.678421-.397793,1.40156-.39,2.13v9.9h-1.45v-23.86h1.45v10.33h.1c.501164-.989874,1.317337-1.784939,2.32-2.26.914974-.452447,1.919383-.695008,2.94-.71c1.548818-.10467,3.075269.413748,4.24,1.44c1.047942,1.098306,1.588279,2.58514,1.49,4.1v11Z" fill="#65a2ab"/><path d="M207.69,79.87v-1.62h1.65v1.62Zm.13,21.38v-16.37h1.45v16.37Z" fill="#65a2ab"/><path d="M222.24,101.25c-.97827.113641-1.950013-.260106-2.6-1-.531735-.83334-.787178-1.813122-.73-2.8v-11.31h-2.24v-1.26h2.24v-4.32h1.45v4.32h3v1.26h-3v11.18c-.000239.35485.026505.709205.08,1.06.047588.310154.167485.604759.35.86.189958.251683.446171.445575.74.56.39678.145197.81769.213086,1.24.2h1v1.25Z" fill="#65a2ab"/><path d="M231,93.3c-.024838.890216.059117,1.780135.25,2.65.164559.794533.483969,1.548883.94,2.22.454031.633628,1.054387,1.148218,1.75,1.5.83355.39412,1.748338.585985,2.67.56.712536.000935,1.418634-.134853,2.08-.4.669746-.245126,1.302398-.581643,1.88-1l.83,1c-.659008.554947-1.419859.976132-2.24,1.24-.802423.252515-1.638783.380667-2.48.38-.847393-.001353-1.691054-.112273-2.51-.33-.843501-.227361-1.619098-.656341-2.26-1.25-.731076-.714223-1.294612-1.581727-1.65-2.54-.471101-1.344949-.68812-2.765743-.64-4.19-.041368-1.395296.165166-2.786865.61-4.11.33582-.967631.866789-1.855983,1.56-2.61.577393-.621743,1.303513-1.086322,2.11-1.35.751244-.250875,1.537974-.379182,2.33-.38.975271-.025586,1.94342.172833,2.83.58.775552.362892,1.459203.89614,2,1.56.557011.697889.968452,1.500369,1.21,2.36.273485.976268.40814,1.986182.4,3v1.11Zm10.23-1.19c.093079-1.660038-.402704-3.299665-1.4-4.63-.923343-1.005664-2.246444-1.548099-3.61-1.48-1.408869-.068689-2.769336.522818-3.68,1.6-.978644,1.310865-1.505052,2.904126-1.5,4.54Z" fill="#65a2ab"/><path d="M259.39,101c-.840813.328744-1.737281.491738-2.64.48-.904677-.001249-1.803109-.149862-2.66-.44-.872735-.303607-1.668139-.795187-2.33-1.44-.73057-.737929-1.293369-1.624764-1.65-2.6-.826606-2.541135-.826606-5.278865,0-7.82.357909-.971665.920636-1.854976,1.65-2.59.661861-.644813,1.457265-1.136393,2.33-1.44.856891-.290138,1.755323-.438751,2.66-.44.903686-.012164,1.800869.154358,2.64.49.778451.32445,1.500703.769951,2.14,1.32l-.92,1.09c-.474694-.464-1.030586-.836854-1.64-1.1-.625648-.294711-1.308417-.448334-2-.45-1.686425-.10523-3.328677.564926-4.46,1.82-1.126739,1.505073-1.676663,3.364169-1.55,5.24-.121541,1.88455.427515,3.75134,1.55,5.27c1.127665,1.261254,2.771447,1.93572,4.46,1.83.697002-.004781,1.382749-.176218,2-.5.582294-.271046,1.132391-.606471,1.64-1l.92,1c-.637239.542634-1.360487.975231-2.14,1.28Z" fill="#65a2ab"/><path d="M273.56,101.25c-.981623.117058-1.957903-.256995-2.61-1-.523267-.836639-.774774-1.814722-.72-2.8v-11.31h-2.23v-1.26h2.25v-4.32h1.45v4.32h3v1.26h-3v11.18c-.000239.35485.026505.709205.08,1.06.047588.310154.167485.604759.35.86.187607.254018.444563.448471.74.56.39678.145197.81769.213086,1.24.2h1v1.25Z" fill="#65a2ab"/><path d="M294.31,96.84c.010281.633871-.130247,1.261109-.41,1.83-.28593.570187-.695972,1.069072-1.2,1.46-.598115.455712-1.276561.794935-2,1-.883851.253965-1.800513.375287-2.72.36-1.159082.005669-2.313369-.149133-3.43-.46-1.089531-.306242-2.108656-.822599-3-1.52l.85-1.12c.786515.636229,1.690266,1.111887,2.66,1.4c1.021735.306013,2.08345.457686,3.15.45.521012-.005348,1.040214-.062293,1.55-.17.528564-.098728,1.036053-.288191,1.5-.56.453879-.260777.84077-.623701,1.13-1.06.306684-.494354.459812-1.068581.44-1.65.017074-.508217-.118788-1.00986-.39-1.44-.25622-.386395-.59851-.708147-1-.94-.46273-.256357-.956889-.451332-1.47-.58-.542938-.140311-1.093973-.247178-1.65-.32-.73-.1-1.44-.23-2.13-.38-.6446-.121889-1.267878-.337509-1.85-.64-.522964-.272675-.969753-.671348-1.3-1.16-.357882-.574329-.532292-1.244063-.5-1.92-.012832-.690908.134338-1.375419.43-2c.282923-.561011.694026-1.047483,1.2-1.42.556499-.423408,1.187374-.738846,1.86-.93.772826-.226265,1.574767-.337459,2.38-.33c1.012484-.01952,2.022599.105061,3,.37.841805.250057,1.636028.638719,2.35,1.15l-.8,1.15c-.628402-.404925-1.299019-.740233-2-1-.788979-.249145-1.612687-.370676-2.44-.36-1.129908-.042497-2.248044.242246-3.22.82-.832579.5231-1.326899,1.447097-1.3,2.43-.02107.472829.112314.939672.38,1.33.264701.350239.606995.634343,1,.83.478968.217235.982708.375074,1.5.47.57.11,1.18.21,1.81.3s1.33.25,2,.43c.637656.157746,1.245535.417783,1.8.77.526635.341402.9707.795715,1.3,1.33.364753.630934.54493,1.351645.52,2.08Z" fill="#65a2ab"/><path d="M164.91,0.28L152.9,33h5.29l2.25-6.58h12.93L175.62,33h5.29l-12-32.72Zm-3,21.94L167,7.68l5,14.54Z" fill="#727271"/><polygon points="184.29,4.74 198.78,4.74 183.65,28.75 183.65,33.03 204.63,33.03 204.63,28.57 189.4,28.57 204.63,4.32 204.63,0.28 184.29,0.28 184.29,4.74" fill="#727271"/><polygon points="208.85,4.74 223.34,4.74 208.21,28.75 208.21,33.03 229.19,33.03 229.19,28.57 213.96,28.57 229.19,4.32 229.19,0.28 208.85,0.28 208.85,4.74" fill="#727271"/><polygon points="134.8,0.28 129.83,0.28 129.83,33.03 150.58,33.03 150.58,28.57 134.8,28.57 134.8,0.28" fill="#727271"/><path d="M311,3.31c-4.780628-4.41295-12.149372-4.41295-16.93,0-1.394849,1.311254-2.363408,3.01146-2.78,4.88-.426121,2.798819-.60348,5.629883-.53,8.46-.073757,2.833444.103603,5.667853.53,8.47.423289,1.870474,1.398788,3.570629,2.8,4.88c4.777747,4.400655,12.132253,4.400655,16.91,0c1.39215-1.309334,2.360392-3.005499,2.78-4.87.426397-2.802147.603757-5.636556.53-8.47.07348-2.830117-.103879-5.661181-.53-8.46-.414728-1.87213-1.383423-3.576058-2.78-4.89ZM309,23.6c-.192786,1.205165-.739232,2.3259-1.57,3.22-1.277481,1.321677-3.036852,2.068018-4.875,2.068018s-3.597519-.746341-4.875-2.068018c-.827005-.915053-1.369146-2.051462-1.56-3.27-.308233-2.28635-.431966-4.593798-.37-6.9-.061573-2.312845.062156-4.626907.37-6.92.188819-1.22509.730971-2.368474,1.56-3.29c1.292372-1.293983,3.046171-2.02107,4.875-2.02107s3.582628.727087,4.875,2.02107c.8333.900243,1.379831,2.028116,1.57,3.24.299655,2.32062.420011,4.660883.36,7c.057801,2.312488-.062555,4.625993-.36,6.92Z" fill="#727271"/><path d="M284.67,15.48c1.242742-1.611854,1.886168-3.605767,1.82-5.64.092289-2.589906-.918006-5.097472-2.78-6.9-2.013596-1.830787-4.671527-2.787499-7.39-2.66h-12.69v32.72h5v-13.77h6.21L281.7,33h5.8L280,18.54c1.848451-.484024,3.488249-1.558496,4.67-3.06ZM268.59,15v-10.26h7.41c1.459833-.062125,2.889024.430946,4,1.38c1.034248.973477,1.589799,2.351389,1.52,3.77.0707,1.412916-.485479,2.785067-1.52,3.75-1.118324.934079-2.544084,1.418837-4,1.36Z" fill="#727271"/><polygon points="340.09,0.28 340.09,0.28 317.09,0.28 317.09,4.74 326.1,4.74 326.1,33.03 331.07,33.03 331.07,4.74 338.44,4.74 340.09,0.28" fill="#727271"/><path d="M243.91,0.28L231.9,33h5.29l2.25-6.58h12.93L254.62,33h5.29l-12-32.72Zm-3,21.94L246,7.68l5,14.54Z" fill="#727271"/><polygon points="342.91,4.64 342.91,4.74 351.93,4.74 351.93,33.03 356.9,33.03 356.9,4.74 365.91,4.74 365.91,0.28 344.52,0.28 342.91,4.64" fill="#727271"/><rect width="4.97" height="32.75" rx="0" ry="0" transform="translate(370.1 0.28)" fill="#727271"/></g><script><![CDATA[!function(t,n){"object"==typeof exports&&"undefined"!=typeof module?module.exports=n():"function"==typeof define&&define.amd?define(n):((t="undefined"!=typeof globalThis?globalThis:t||self).__SVGATOR_PLAYER__=t.__SVGATOR_PLAYER__||{},t.__SVGATOR_PLAYER__["5c7f360c"]=n())}(this,(function(){"use strict";function t(t,n){var e=Object.keys(t);if(Object.getOwnPropertySymbols){var r=Object.getOwnPropertySymbols(t);n&&(r=r.filter((function(n){return Object.getOwnPropertyDescriptor(t,n).enumerable}))),e.push.apply(e,r)}return e}function n(n){for(var e=1;e<arguments.length;e++){var r=null!=arguments[e]?arguments[e]:{};e%2?t(Object(r),!0).forEach((function(t){o(n,t,r[t])})):Object.getOwnPropertyDescriptors?Object.defineProperties(n,Object.getOwnPropertyDescriptors(r)):t(Object(r)).forEach((function(t){Object.defineProperty(n,t,Object.getOwnPropertyDescriptor(r,t))}))}return n}function e(t){return(e="function"==typeof Symbol&&"symbol"==typeof Symbol.iterator?function(t){return typeof t}:function(t){return t&&"function"==typeof Symbol&&t.constructor===Symbol&&t!==Symbol.prototype?"symbol":typeof t})(t)}function r(t,n){if(!(t instanceof n))throw new TypeError("Cannot call a class as a function")}function i(t,n){for(var e=0;e<n.length;e++){var r=n[e];r.enumerable=r.enumerable||!1,r.configurable=!0,"value"in r&&(r.writable=!0),Object.defineProperty(t,r.key,r)}}function u(t,n,e){return n&&i(t.prototype,n),e&&i(t,e),t}function o(t,n,e){return n in t?Object.defineProperty(t,n,{value:e,enumerable:!0,configurable:!0,writable:!0}):t[n]=e,t}function a(t){return(a=Object.setPrototypeOf?Object.getPrototypeOf:function(t){return t.__proto__||Object.getPrototypeOf(t)})(t)}function l(t,n){return(l=Object.setPrototypeOf||function(t,n){return t.__proto__=n,t})(t,n)}function s(){if("undefined"==typeof Reflect||!Reflect.construct)return!1;if(Reflect.construct.sham)return!1;if("function"==typeof Proxy)return!0;try{return Boolean.prototype.valueOf.call(Reflect.construct(Boolean,[],(function(){}))),!0}catch(t){return!1}}function f(t,n,e){return(f=s()?Reflect.construct:function(t,n,e){var r=[null];r.push.apply(r,n);var i=new(Function.bind.apply(t,r));return e&&l(i,e.prototype),i}).apply(null,arguments)}function c(t,n){if(n&&("object"==typeof n||"function"==typeof n))return n;if(void 0!==n)throw new TypeError("Derived constructors may only return object or undefined");return function(t){if(void 0===t)throw new ReferenceError("this hasn't been initialised - super() hasn't been called");return t}(t)}function h(t,n,e){return(h="undefined"!=typeof Reflect&&Reflect.get?Reflect.get:function(t,n,e){var r=function(t,n){for(;!Object.prototype.hasOwnProperty.call(t,n)&&null!==(t=a(t)););return t}(t,n);if(r){var i=Object.getOwnPropertyDescriptor(r,n);return i.get?i.get.call(e):i.value}})(t,n,e||t)}function v(t){return function(t){if(Array.isArray(t))return y(t)}(t)||function(t){if("undefined"!=typeof Symbol&&null!=t[Symbol.iterator]||null!=t["@@iterator"])return Array.from(t)}(t)||function(t,n){if(!t)return;if("string"==typeof t)return y(t,n);var e=Object.prototype.toString.call(t).slice(8,-1);"Object"===e&&t.constructor&&(e=t.constructor.name);if("Map"===e||"Set"===e)return Array.from(t);if("Arguments"===e||/^(?:Ui|I)nt(?:8|16|32)(?:Clamped)?Array$/.test(e))return y(t,n)}(t)||function(){throw new TypeError("Invalid attempt to spread non-iterable instance.\nIn order to be iterable, non-array objects must have a [Symbol.iterator]() method.")}()}function y(t,n){(null==n||n>t.length)&&(n=t.length);for(var e=0,r=new Array(n);e<n;e++)r[e]=t[e];return r}Number.isInteger||(Number.isInteger=function(t){return"number"==typeof t&&isFinite(t)&&Math.floor(t)===t}),Number.EPSILON||(Number.EPSILON=2220446049250313e-31);var g=d(Math.pow(10,-6));function d(t){var n=arguments.length>1&&void 0!==arguments[1]?arguments[1]:6;if(Number.isInteger(t))return t;var e=Math.pow(10,n);return Math.round((+t+Number.EPSILON)*e)/e}function p(t,n){var e=arguments.length>2&&void 0!==arguments[2]?arguments[2]:g;return Math.abs(t-n)<e}var m=Math.PI/180;function b(t){return t}function w(t,n,e){var r=1-e;return 3*e*r*(t*r+n*e)+e*e*e}function x(){var t=arguments.length>0&&void 0!==arguments[0]?arguments[0]:0,n=arguments.length>1&&void 0!==arguments[1]?arguments[1]:0,e=arguments.length>2&&void 0!==arguments[2]?arguments[2]:1,r=arguments.length>3&&void 0!==arguments[3]?arguments[3]:1;return t<0||t>1||e<0||e>1?null:p(t,n)&&p(e,r)?b:function(i){if(i<=0)return t>0?i*n/t:0===n&&e>0?i*r/e:0;if(i>=1)return e<1?1+(i-1)*(r-1)/(e-1):1===e&&t<1?1+(i-1)*(n-1)/(t-1):1;for(var u,o=0,a=1;o<a;){var l=w(t,e,u=(o+a)/2);if(p(i,l))break;l<i?o=u:a=u}return w(n,r,u)}}function A(){return 1}function k(t){return 1===t?1:0}function _(){var t=arguments.length>0&&void 0!==arguments[0]?arguments[0]:1,n=arguments.length>1&&void 0!==arguments[1]?arguments[1]:0;if(1===t){if(0===n)return k;if(1===n)return A}var e=1/t;return function(t){return t>=1?1:(t+=n*e)-t%e}}var S=Math.sin,O=Math.cos,j=Math.acos,M=Math.asin,P=Math.tan,E=Math.atan2,I=Math.PI/180,R=180/Math.PI,F=Math.sqrt,N=function(){function t(){var n=arguments.length>0&&void 0!==arguments[0]?arguments[0]:1,e=arguments.length>1&&void 0!==arguments[1]?arguments[1]:0,i=arguments.length>2&&void 0!==arguments[2]?arguments[2]:0,u=arguments.length>3&&void 0!==arguments[3]?arguments[3]:1,o=arguments.length>4&&void 0!==arguments[4]?arguments[4]:0,a=arguments.length>5&&void 0!==arguments[5]?arguments[5]:0;r(this,t),this.m=[n,e,i,u,o,a],this.i=null,this.w=null,this.s=null}return u(t,[{key:"determinant",get:function(){var t=this.m;return t[0]*t[3]-t[1]*t[2]}},{key:"isIdentity",get:function(){if(null===this.i){var t=this.m;this.i=1===t[0]&&0===t[1]&&0===t[2]&&1===t[3]&&0===t[4]&&0===t[5]}return this.i}},{key:"point",value:function(t,n){var e=this.m;return{x:e[0]*t+e[2]*n+e[4],y:e[1]*t+e[3]*n+e[5]}}},{key:"translateSelf",value:function(){var t=arguments.length>0&&void 0!==arguments[0]?arguments[0]:0,n=arguments.length>1&&void 0!==arguments[1]?arguments[1]:0;if(!t&&!n)return this;var e=this.m;return e[4]+=e[0]*t+e[2]*n,e[5]+=e[1]*t+e[3]*n,this.w=this.s=this.i=null,this}},{key:"rotateSelf",value:function(){var t=arguments.length>0&&void 0!==arguments[0]?arguments[0]:0;if(t%=360){var n=S(t*=I),e=O(t),r=this.m,i=r[0],u=r[1];r[0]=i*e+r[2]*n,r[1]=u*e+r[3]*n,r[2]=r[2]*e-i*n,r[3]=r[3]*e-u*n,this.w=this.s=this.i=null}return this}},{key:"scaleSelf",value:function(){var t=arguments.length>0&&void 0!==arguments[0]?arguments[0]:1,n=arguments.length>1&&void 0!==arguments[1]?arguments[1]:1;if(1!==t||1!==n){var e=this.m;e[0]*=t,e[1]*=t,e[2]*=n,e[3]*=n,this.w=this.s=this.i=null}return this}},{key:"skewSelf",value:function(t,n){if(n%=360,(t%=360)||n){var e=this.m,r=e[0],i=e[1],u=e[2],o=e[3];t&&(t=P(t*I),e[2]+=r*t,e[3]+=i*t),n&&(n=P(n*I),e[0]+=u*n,e[1]+=o*n),this.w=this.s=this.i=null}return this}},{key:"resetSelf",value:function(){var t=arguments.length>0&&void 0!==arguments[0]?arguments[0]:1,n=arguments.length>1&&void 0!==arguments[1]?arguments[1]:0,e=arguments.length>2&&void 0!==arguments[2]?arguments[2]:0,r=arguments.length>3&&void 0!==arguments[3]?arguments[3]:1,i=arguments.length>4&&void 0!==arguments[4]?arguments[4]:0,u=arguments.length>5&&void 0!==arguments[5]?arguments[5]:0,o=this.m;return o[0]=t,o[1]=n,o[2]=e,o[3]=r,o[4]=i,o[5]=u,this.w=this.s=this.i=null,this}},{key:"recomposeSelf",value:function(){var t=arguments.length>0&&void 0!==arguments[0]?arguments[0]:null,n=arguments.length>1&&void 0!==arguments[1]?arguments[1]:null,e=arguments.length>2&&void 0!==arguments[2]?arguments[2]:null,r=arguments.length>3&&void 0!==arguments[3]?arguments[3]:null,i=arguments.length>4&&void 0!==arguments[4]?arguments[4]:null;return this.isIdentity||this.resetSelf(),t&&(t.x||t.y)&&this.translateSelf(t.x,t.y),n&&this.rotateSelf(n),e&&(e.x&&this.skewSelf(e.x,0),e.y&&this.skewSelf(0,e.y)),!r||1===r.x&&1===r.y||this.scaleSelf(r.x,r.y),i&&(i.x||i.y)&&this.translateSelf(i.x,i.y),this}},{key:"decompose",value:function(){var t=arguments.length>0&&void 0!==arguments[0]?arguments[0]:0,n=arguments.length>1&&void 0!==arguments[1]?arguments[1]:0,e=this.m,r=e[0]*e[0]+e[1]*e[1],i=[[e[0],e[1]],[e[2],e[3]]],u=F(r);if(0===u)return{origin:{x:d(e[4]),y:d(e[5])},translate:{x:d(t),y:d(n)},scale:{x:0,y:0},skew:{x:0,y:0},rotate:0};i[0][0]/=u,i[0][1]/=u;var o=e[0]*e[3]-e[1]*e[2]<0;o&&(u=-u);var a=i[0][0]*i[1][0]+i[0][1]*i[1][1];i[1][0]-=i[0][0]*a,i[1][1]-=i[0][1]*a;var l=F(i[1][0]*i[1][0]+i[1][1]*i[1][1]);if(0===l)return{origin:{x:d(e[4]),y:d(e[5])},translate:{x:d(t),y:d(n)},scale:{x:d(u),y:0},skew:{x:0,y:0},rotate:0};i[1][0]/=l,i[1][1]/=l,a/=l;var s=0;return i[1][1]<0?(s=j(i[1][1])*R,i[0][1]<0&&(s=360-s)):s=M(i[0][1])*R,o&&(s=-s),a=E(a,F(i[0][0]*i[0][0]+i[0][1]*i[0][1]))*R,o&&(a=-a),{origin:{x:d(e[4]),y:d(e[5])},translate:{x:d(t),y:d(n)},scale:{x:d(u),y:d(l)},skew:{x:d(a),y:0},rotate:d(s)}}},{key:"clone",value:function(){var t=this.m;return new this.constructor(t[0],t[1],t[2],t[3],t[4],t[5])}},{key:"toString",value:function(){var t=arguments.length>0&&void 0!==arguments[0]?arguments[0]:" ";if(null===this.s){var n=this.m.map((function(t){return d(t)}));1===n[0]&&0===n[1]&&0===n[2]&&1===n[3]?this.s="translate("+n[4]+t+n[5]+")":this.s="matrix("+n.join(t)+")"}return this.s}}],[{key:"create",value:function(t){return t?Array.isArray(t)?f(this,v(t)):t instanceof this?t.clone():(new this).recomposeSelf(t.origin,t.rotate,t.skew,t.scale,t.translate):new this}}]),t}();function T(t,n,e){return t>=.5?e:n}function q(t,n,e){return 0===t||n===e?n:t*(e-n)+n}function B(t,n,e){var r=q(t,n,e);return r<=0?0:r}function L(t,n,e){var r=q(t,n,e);return r<=0?0:r>=1?1:r}function C(t,n,e){return 0===t?n:1===t?e:{x:q(t,n.x,e.x),y:q(t,n.y,e.y)}}function D(t,n,e){var r=function(t,n,e){return Math.round(q(t,n,e))}(t,n,e);return r<=0?0:r>=255?255:r}function z(t,n,e){return 0===t?n:1===t?e:{r:D(t,n.r,e.r),g:D(t,n.g,e.g),b:D(t,n.b,e.b),a:q(t,null==n.a?1:n.a,null==e.a?1:e.a)}}function V(t,n){for(var e=[],r=0;r<t;r++)e.push(n);return e}function G(t,n){if(--n<=0)return t;var e=(t=Object.assign([],t)).length;do{for(var r=0;r<e;r++)t.push(t[r])}while(--n>0);return t}var Y,$=function(){function t(n){r(this,t),this.list=n,this.length=n.length}return u(t,[{key:"setAttribute",value:function(t,n){for(var e=this.list,r=0;r<this.length;r++)e[r].setAttribute(t,n)}},{key:"removeAttribute",value:function(t){for(var n=this.list,e=0;e<this.length;e++)n[e].removeAttribute(t)}},{key:"style",value:function(t,n){for(var e=this.list,r=0;r<this.length;r++)e[r].style[t]=n}}]),t}(),U=/-./g,Q=function(t,n){return n.toUpperCase()};function H(t){return"function"==typeof t?t:T}function J(t){return t?"function"==typeof t?t:Array.isArray(t)?function(t){var n=arguments.length>1&&void 0!==arguments[1]?arguments[1]:b;if(!Array.isArray(t))return n;switch(t.length){case 1:return _(t[0])||n;case 2:return _(t[0],t[1])||n;case 4:return x(t[0],t[1],t[2],t[3])||n}return n}(t,null):function(t,n){var e=arguments.length>2&&void 0!==arguments[2]?arguments[2]:b;switch(t){case"linear":return b;case"steps":return _(n.steps||1,n.jump||0)||e;case"bezier":case"cubic-bezier":return x(n.x1||0,n.y1||0,n.x2||0,n.y2||0)||e}return e}(t.type,t.value,null):null}function Z(t,n,e){var r=arguments.length>3&&void 0!==arguments[3]&&arguments[3],i=n.length-1;if(t<=n[0].t)return r?[0,0,n[0].v]:n[0].v;if(t>=n[i].t)return r?[i,1,n[i].v]:n[i].v;var u,o=n[0],a=null;for(u=1;u<=i;u++){if(!(t>n[u].t)){a=n[u];break}o=n[u]}return null==a?r?[i,1,n[i].v]:n[i].v:o.t===a.t?r?[u,1,a.v]:a.v:(t=(t-o.t)/(a.t-o.t),o.e&&(t=o.e(t)),r?[u,t,e(t,o.v,a.v)]:e(t,o.v,a.v))}function K(t,n){var e=arguments.length>2&&void 0!==arguments[2]?arguments[2]:null;return t&&t.length?"function"!=typeof n?null:("function"!=typeof e&&(e=null),function(r){var i=Z(r,t,n);return null!=i&&e&&(i=e(i)),i}):null}function W(t,n){return t.t-n.t}function X(t,n,r,i,u){var o,a="@"===r[0],l="#"===r[0],s=Y[r],f=T;switch(a?(o=r.substr(1),r=o.replace(U,Q)):l&&(r=r.substr(1)),e(s)){case"function":if(f=s(i,u,Z,J,r,a,n,t),l)return f;break;case"string":f=K(i,H(s));break;case"object":if((f=K(i,H(s.i),s.f))&&"function"==typeof s.u)return s.u(n,f,r,a,t)}return f?function(t,n,e){if(arguments.length>3&&void 0!==arguments[3]&&arguments[3])return t instanceof $?function(r){return t.style(n,e(r))}:function(r){return t.style[n]=e(r)};if(Array.isArray(n)){var r=n.length;return function(i){var u=e(i);if(null==u)for(var o=0;o<r;o++)t[o].removeAttribute(n);else for(var a=0;a<r;a++)t[a].setAttribute(n,u)}}return function(r){var i=e(r);null==i?t.removeAttribute(n):t.setAttribute(n,i)}}(n,r,f,a):null}function tt(t,n,r,i){if(!i||"object"!==e(i))return null;var u=null,o=null;return Array.isArray(i)?o=function(t){if(!t||!t.length)return null;for(var n=0;n<t.length;n++)t[n].e&&(t[n].e=J(t[n].e));return t.sort(W)}(i):(o=i.keys,u=i.data||null),o?X(t,n,r,o,u):null}function nt(t,n,e){if(!e)return null;var r=[];for(var i in e)if(e.hasOwnProperty(i)){var u=tt(t,n,i,e[i]);u&&r.push(u)}return r.length?r:null}function et(t,n){if(!n.settings.duration||n.settings.duration<0)return null;var e,r,i,u,o,a=function(t,n){if(!n)return null;var e=[];if(Array.isArray(n))for(var r=n.length,i=0;i<r;i++){var u=n[i];if(2===u.length){var o=null;if("string"==typeof u[0])o=t.getElementById(u[0]);else if(Array.isArray(u[0])){o=[];for(var a=0;a<u[0].length;a++)if("string"==typeof u[0][a]){var l=t.getElementById(u[0][a]);l&&o.push(l)}o=o.length?1===o.length?o[0]:new $(o):null}if(o){var s=nt(t,o,u[1]);s&&(e=e.concat(s))}}}else for(var f in n)if(n.hasOwnProperty(f)){var c=t.getElementById(f);if(c){var h=nt(t,c,n[f]);h&&(e=e.concat(h))}}return e.length?e:null}(t,n.elements);return a?(e=a,r=n.settings,i=r.duration,u=e.length,o=null,function(t,n){var a=r.iterations||1/0,l=(r.alternate&&a%2==0)^r.direction>0?i:0,s=t%i,f=1+(t-s)/i;n*=r.direction,r.alternate&&f%2==0&&(n=-n);var c=!1;if(f>a)s=l,c=!0,-1===r.fill&&(s=r.direction>0?0:i);else if(n<0&&(s=i-s),s===o)return!1;o=s;for(var h=0;h<u;h++)e[h](s);return c}):null}function rt(t,n){if(Y=n,!t||!t.root||!Array.isArray(t.animations))return null;var e=function(t){for(var n=document.getElementsByTagName("svg"),e=0;e<n.length;e++)if(n[e].id===t.root&&!n[e].svgatorAnimation)return n[e].svgatorAnimation=!0,n[e];return null}(t);if(!e)return null;var r=t.animations.map((function(t){return et(e,t)})).filter((function(t){return!!t}));return r.length?{svg:e,animations:r,animationSettings:t.animationSettings,options:t.options||void 0}:null}function it(t){return+("0x"+(t.replace(/[^0-9a-fA-F]+/g,"")||27))}function ut(t,n,e){return!t||!e||n>t.length?t:t.substring(0,n)+ut(t.substring(n+1),e,e)}function ot(t){var n=arguments.length>1&&void 0!==arguments[1]?arguments[1]:27;return!t||t%n?t%n:ot(t/n,n)}function at(t,n,e){if(t&&t.length){var r=it(e),i=it(n),u=ot(r)+5,o=ut(t,ot(r,5),u);return o=o.replace(/\x7c$/g,"==").replace(/\x2f$/g,"="),o=function(t,n,e){var r=+("0x"+t.substring(0,4));t=t.substring(4);for(var i=n%r+e%27,u=[],o=0;o<t.length;o+=2)if("|"!==t[o]){var a=+("0x"+t[o]+t[o+1])-i;u.push(a)}else{var l=+("0x"+t.substring(o+1,o+1+4))-i;o+=3,u.push(l)}return String.fromCharCode.apply(String,u)}(o=(o=atob(o)).replace(/[\x41-\x5A]/g,""),i,r),o=JSON.parse(o)}}var lt=[{key:"alternate",def:!1},{key:"fill",def:1},{key:"iterations",def:0},{key:"direction",def:1},{key:"speed",def:1},{key:"fps",def:100}],st=function(){function t(n,e){var i=this,u=arguments.length>2&&void 0!==arguments[2]?arguments[2]:null;r(this,t),this._id=0,this._running=!1,this._rollingBack=!1,this._animations=n,this._settings=e,(!u||u<"2022-05-02")&&delete this._settings.speed,lt.forEach((function(t){i._settings[t.key]=i._settings[t.key]||t.def})),this.duration=e.duration,this.offset=e.offset||0,this.rollbackStartOffset=0}return u(t,[{key:"alternate",get:function(){return this._settings.alternate}},{key:"fill",get:function(){return this._settings.fill}},{key:"iterations",get:function(){return this._settings.iterations}},{key:"direction",get:function(){return this._settings.direction}},{key:"speed",get:function(){return this._settings.speed}},{key:"fps",get:function(){return this._settings.fps}},{key:"maxFiniteDuration",get:function(){return this.iterations>0?this.iterations*this.duration:this.duration}},{key:"_apply",value:function(t){for(var n=arguments.length>1&&void 0!==arguments[1]?arguments[1]:{},e=this._animations,r=e.length,i=0,u=0;u<r;u++)n[u]?i++:(n[u]=e[u](t,1),n[u]&&i++);return i}},{key:"_rollback",value:function(t){var n=this,e=1/0,r=null;this.rollbackStartOffset=t,this._rollingBack=!0,this._running=!0;this._id=window.requestAnimationFrame((function i(u){if(n._rollingBack){null==r&&(r=u);var o=Math.round(t-(u-r)*n.speed);if(o>n.duration&&e!==1/0){var a=!!n.alternate&&o/n.duration%2>1,l=o%n.duration;o=(l+=a?n.duration:0)||n.duration}var s=(n.fps?1e3/n.fps:0)*n.speed,f=Math.max(0,o);f<e-s&&(n.offset=f,e=f,n._apply(f));var c=n.iterations>0&&-1===n.fill&&o>=n.maxFiniteDuration;(o<=0||n.offset<o||c)&&n.stop(),n._id=window.requestAnimationFrame(i)}}))}},{key:"_start",value:function(){var t=this,n=arguments.length>0&&void 0!==arguments[0]?arguments[0]:0,e=-1/0,r=null,i={};this._running=!0;var u=function u(o){null==r&&(r=o);var a=Math.round((o-r)*t.speed+n),l=(t.fps?1e3/t.fps:0)*t.speed;if(a>e+l&&!t._rollingBack&&(t.offset=a,e=a,t._apply(a,i)===t._animations.length))return void t.pause(!0);t._id=window.requestAnimationFrame(u)};this._id=window.requestAnimationFrame(u)}},{key:"_pause",value:function(){this._id&&window.cancelAnimationFrame(this._id),this._running=!1}},{key:"play",value:function(){if(!this._running)return this._rollingBack?this._rollback(this.offset):this._start(this.offset)}},{key:"stop",value:function(){this._pause(),this.offset=0,this.rollbackStartOffset=0,this._rollingBack=!1,this._apply(0)}},{key:"reachedToEnd",value:function(){return this.iterations>0&&this.offset>=this.iterations*this.duration}},{key:"restart",value:function(){var t=arguments.length>0&&void 0!==arguments[0]&&arguments[0];this.stop(t),this.play(t)}},{key:"pause",value:function(){this._pause()}},{key:"reverse",value:function(){this.direction=-this.direction}}],[{key:"build",value:function(t,n){delete t.animationSettings,t.options=at(t.options,t.root,"5c7f360c"),t.animations.map((function(n){n.settings=at(n.s,t.root,"5c7f360c"),delete n.s,t.animationSettings||(t.animationSettings=n.settings)}));var e=t.version;if(!(t=rt(t,n)))return null;var r=t.options||{},i=new this(t.animations,t.animationSettings,e);return{el:t.svg,options:r,player:i}}},{key:"push",value:function(t){return this.build(t)}},{key:"init",value:function(){var t=this,n=window.__SVGATOR_PLAYER__&&window.__SVGATOR_PLAYER__["5c7f360c"];Array.isArray(n)&&n.splice(0).forEach((function(n){return t.build(n)}))}}]),t}();function ft(t){return d(t)+""}function ct(t){var n=arguments.length>1&&void 0!==arguments[1]?arguments[1]:" ";return t&&t.length?t.map(ft).join(n):""}function ht(t){if(!t)return"transparent";if(null==t.a||t.a>=1){var n=function(t){return 1===(t=parseInt(t).toString(16)).length?"0"+t:t},e=function(t){return t.charAt(0)===t.charAt(1)},r=n(t.r),i=n(t.g),u=n(t.b);return e(r)&&e(i)&&e(u)&&(r=r.charAt(0),i=i.charAt(0),u=u.charAt(0)),"#"+r+i+u}return"rgba("+t.r+","+t.g+","+t.b+","+t.a+")"}function vt(t){return t?"url(#"+t+")":"none"}!function(){for(var t=0,n=["ms","moz","webkit","o"],e=0;e<n.length&&!window.requestAnimationFrame;++e)window.requestAnimationFrame=window[n[e]+"RequestAnimationFrame"],window.cancelAnimationFrame=window[n[e]+"CancelAnimationFrame"]||window[n[e]+"CancelRequestAnimationFrame"];window.requestAnimationFrame||(window.requestAnimationFrame=function(n){var e=Date.now(),r=Math.max(0,16-(e-t)),i=window.setTimeout((function(){n(e+r)}),r);return t=e+r,i},window.cancelAnimationFrame=window.clearTimeout)}();var yt={f:null,i:function(t,n,e){return 0===t?n:1===t?e:{x:B(t,n.x,e.x),y:B(t,n.y,e.y)}},u:function(t,n){return function(e){var r=n(e);t.setAttribute("rx",ft(r.x)),t.setAttribute("ry",ft(r.y))}}},gt={f:null,i:function(t,n,e){return 0===t?n:1===t?e:{width:B(t,n.width,e.width),height:B(t,n.height,e.height)}},u:function(t,n){return function(e){var r=n(e);t.setAttribute("width",ft(r.width)),t.setAttribute("height",ft(r.height))}}};Object.freeze({M:2,L:2,Z:0,H:1,V:1,C:6,Q:4,T:2,S:4,A:7});var dt={},pt=null;function mt(t){var n=function(){if(pt)return pt;if("object"!==("undefined"==typeof document?"undefined":e(document))||!document.createElementNS)return{};var t=document.createElementNS("http://www.w3.org/2000/svg","svg");return t&&t.style?(t.style.position="absolute",t.style.opacity="0.01",t.style.zIndex="-9999",t.style.left="-9999px",t.style.width="1px",t.style.height="1px",pt={svg:t}):{}}().svg;if(!n)return function(t){return null};var r=document.createElementNS(n.namespaceURI,"path");r.setAttributeNS(null,"d",t),r.setAttributeNS(null,"fill","none"),r.setAttributeNS(null,"stroke","none"),n.appendChild(r);var i=r.getTotalLength();return function(t){var n=r.getPointAtLength(i*t);return{x:n.x,y:n.y}}}function bt(t){return dt[t]?dt[t]:dt[t]=mt(t)}function wt(t,n,e,r){if(!t||!r)return!1;var i=["M",t.x,t.y];if(n&&e&&(i.push("C"),i.push(n.x),i.push(n.y),i.push(e.x),i.push(e.y)),n?!e:e){var u=n||e;i.push("Q"),i.push(u.x),i.push(u.y)}return n||e||i.push("L"),i.push(r.x),i.push(r.y),i.join(" ")}function xt(t,n,e,r){var i=arguments.length>4&&void 0!==arguments[4]?arguments[4]:1,u=wt(t,n,e,r),o=bt(u);try{return o(i)}catch(t){return null}}function At(t,n,e){return t+(n-t)*e}function kt(t,n,e){var r=arguments.length>3&&void 0!==arguments[3]&&arguments[3],i={x:At(t.x,n.x,e),y:At(t.y,n.y,e)};return r&&(i.a=_t(t,n)),i}function _t(t,n){return Math.atan2(n.y-t.y,n.x-t.x)}function St(t,n,e,r){var i=1-r;return i*i*t+2*i*r*n+r*r*e}function Ot(t,n,e,r){return 2*(1-r)*(n-t)+2*r*(e-n)}function jt(t,n,e,r){var i=arguments.length>4&&void 0!==arguments[4]&&arguments[4],u=xt(t,n,null,e,r);return u||(u={x:St(t.x,n.x,e.x,r),y:St(t.y,n.y,e.y,r)}),i&&(u.a=Mt(t,n,e,r)),u}function Mt(t,n,e,r){return Math.atan2(Ot(t.y,n.y,e.y,r),Ot(t.x,n.x,e.x,r))}function Pt(t,n,e,r,i){var u=i*i;return i*u*(r-t+3*(n-e))+3*u*(t+e-2*n)+3*i*(n-t)+t}function Et(t,n,e,r,i){var u=1-i;return 3*(u*u*(n-t)+2*u*i*(e-n)+i*i*(r-e))}function It(t,n,e,r,i){var u=arguments.length>5&&void 0!==arguments[5]&&arguments[5],o=xt(t,n,e,r,i);return o||(o={x:Pt(t.x,n.x,e.x,r.x,i),y:Pt(t.y,n.y,e.y,r.y,i)}),u&&(o.a=Rt(t,n,e,r,i)),o}function Rt(t,n,e,r,i){return Math.atan2(Et(t.y,n.y,e.y,r.y,i),Et(t.x,n.x,e.x,r.x,i))}function Ft(t,n,e){var r=arguments.length>3&&void 0!==arguments[3]&&arguments[3];if(Tt(n)){if(qt(e))return jt(n,e.start,e,t,r)}else if(Tt(e)){if(Bt(n))return jt(n,n.end,e,t,r)}else{if(Bt(n))return qt(e)?It(n,n.end,e.start,e,t,r):jt(n,n.end,e,t,r);if(qt(e))return jt(n,e.start,e,t,r)}return kt(n,e,t,r)}function Nt(t,n,e){var r=Ft(t,n,e,!0);return r.a=function(t){return arguments.length>1&&void 0!==arguments[1]&&arguments[1]?t+Math.PI:t}(r.a)/m,r}function Tt(t){return!t.type||"corner"===t.type}function qt(t){return null!=t.start&&!Tt(t)}function Bt(t){return null!=t.end&&!Tt(t)}var Lt=new N;var Ct={f:ft,i:q},Dt={f:ft,i:L};function zt(t,n,e){return t.map((function(t){return function(t,n,e){var r=t.v;if(!r||"g"!==r.t||r.s||!r.v||!r.r)return t;var i=e.getElementById(r.r),u=i&&i.querySelectorAll("stop")||[];return r.s=r.v.map((function(t,n){var e=u[n]&&u[n].getAttribute("offset");return{c:t,o:e=d(parseInt(e)/100)}})),delete r.v,t}(t,0,e)}))}var Vt={gt:"gradientTransform",c:{x:"cx",y:"cy"},rd:"r",f:{x:"x1",y:"y1"},to:{x:"x2",y:"y2"}};function Gt(t,n,r,i,u,o,a,l){return zt(t,0,l),n=function(t,n,e){for(var r,i,u,o=t.length-1,a={},l=0;l<=o;l++)(r=t[l]).e&&(r.e=n(r.e)),r.v&&"g"===(i=r.v).t&&i.r&&(u=e.getElementById(i.r))&&(a[i.r]={e:u,s:u.querySelectorAll("stop")});return a}(t,i,l),function(i){var u=r(i,t,Yt);if(!u)return"none";if("c"===u.t)return ht(u.v);if("g"===u.t){if(!n[u.r])return vt(u.r);var o=n[u.r];return function(t,n){for(var e=t.s,r=e.length;r<n.length;r++){var i=e[e.length-1].cloneNode();i.id=Qt(i.id),t.e.appendChild(i),e=t.s=t.e.querySelectorAll("stop")}for(var u=0,o=e.length,a=n.length-1;u<o;u++)e[u].setAttribute("stop-color",ht(n[Math.min(u,a)].c)),e[u].setAttribute("offset",n[Math.min(u,a)].o)}(o,u.s),Object.keys(Vt).forEach((function(t){if(void 0!==u[t])if("object"!==e(Vt[t])){var n,r="gt"===t?(n=u[t],Array.isArray(n)?"matrix("+n.join(" ")+")":""):u[t],i=Vt[t];o.e.setAttribute(i,r)}else Object.keys(Vt[t]).forEach((function(n){if(void 0!==u[t][n]){var e=u[t][n],r=Vt[t][n];o.e.setAttribute(r,e)}}))})),vt(u.r)}return"none"}}function Yt(t,e,r){if(0===t)return e;if(1===t)return r;if(e&&r){var i=e.t;if(i===r.t)switch(e.t){case"c":return{t:i,v:z(t,e.v,r.v)};case"g":if(e.r===r.r){var u={t:i,s:$t(t,e.s,r.s),r:e.r};return e.gt&&r.gt&&(u.gt=function(t,n,e){var r=n.length;if(r!==e.length)return T(t,n,e);for(var i=new Array(r),u=0;u<r;u++)i[u]=q(t,n[u],e[u]);return i}(t,e.gt,r.gt)),e.c?(u.c=C(t,e.c,r.c),u.rd=B(t,e.rd,r.rd)):e.f&&(u.f=C(t,e.f,r.f),u.to=C(t,e.to,r.to)),u}}if("c"===e.t&&"g"===r.t||"c"===r.t&&"g"===e.t){var o="c"===e.t?e:r,a="g"===e.t?n({},e):n({},r),l=a.s.map((function(t){return{c:o.v,o:t.o}}));return a.s="c"===e.t?$t(t,l,a.s):$t(t,a.s,l),a}}return T(t,e,r)}function $t(t,n,e){if(n.length===e.length)return n.map((function(n,r){return Ut(t,n,e[r])}));for(var r=Math.max(n.length,e.length),i=[],u=0;u<r;u++){var o=Ut(t,n[Math.min(u,n.length-1)],e[Math.min(u,e.length-1)]);i.push(o)}return i}function Ut(t,n,e){return{o:L(t,n.o,e.o||0),c:z(t,n.c,e.c||{})}}function Qt(t){return t.replace(/-fill-([0-9]+)$/,(function(t,n){return"-fill-"+(+n+1)}))}var Ht={fill:Gt,"fill-opacity":Dt,stroke:Gt,"stroke-opacity":Dt,"stroke-width":Ct,"stroke-dashoffset":{f:ft,i:q},"stroke-dasharray":{f:function(t){var n=arguments.length>1&&void 0!==arguments[1]?arguments[1]:" ";return t&&t.length>0&&(t=t.map((function(t){return d(t,4)}))),ct(t,n)},i:function(t,n,e){var r,i,u,o=n.length,a=e.length;if(o!==a)if(0===o)n=V(o=a,0);else if(0===a)a=o,e=V(o,0);else{var l=(u=(r=o)*(i=a)/function(t,n){for(var e;n;)e=n,n=t%n,t=e;return t||1}(r,i))<0?-u:u;n=G(n,Math.floor(l/o)),e=G(e,Math.floor(l/a)),o=a=l}for(var s=[],f=0;f<o;f++)s.push(d(B(t,n[f],e[f])));return s}},opacity:Dt,transform:function(t,n,r,i){if(!(t=function(t,n){if(!t||"object"!==e(t))return null;var r=!1;for(var i in t)t.hasOwnProperty(i)&&(t[i]&&t[i].length?(t[i].forEach((function(t){t.e&&(t.e=n(t.e))})),r=!0):delete t[i]);return r?t:null}(t,i)))return null;var u=function(e,i,u){var o=arguments.length>3&&void 0!==arguments[3]?arguments[3]:null;return t[e]?r(i,t[e],u):n&&n[e]?n[e]:o};return n&&n.a&&t.o?function(n){var e=r(n,t.o,Nt);return Lt.recomposeSelf(e,u("r",n,q,0)+e.a,u("k",n,C),u("s",n,C),u("t",n,C)).toString()}:function(t){return Lt.recomposeSelf(u("o",t,Ft,null),u("r",t,q,0),u("k",t,C),u("s",t,C),u("t",t,C)).toString()}},r:Ct,"#size":gt,"#radius":yt,_:function(t,n){if(Array.isArray(t))for(var e=0;e<t.length;e++)this[t[e]]=n;else this[t]=n}},Jt=function(t){!function(t,n){if("function"!=typeof n&&null!==n)throw new TypeError("Super expression must either be null or a function");t.prototype=Object.create(n&&n.prototype,{constructor:{value:t,writable:!0,configurable:!0}}),n&&l(t,n)}(o,t);var n,e,i=(n=o,e=s(),function(){var t,r=a(n);if(e){var i=a(this).constructor;t=Reflect.construct(r,arguments,i)}else t=r.apply(this,arguments);return c(this,t)});function o(){return r(this,o),i.apply(this,arguments)}return u(o,null,[{key:"build",value:function(t){var n=h(a(o),"build",this).call(this,t,Ht);if(!n)return null;n.el,n.options,function(t,n,e){t.play()}(n.player)}}]),o}(st);return Jt.init(),Jt}));
(function(s,i,o,w,a,b){w[o]=w[o]||{};w[o][s]=w[o][s]||[];w[o][s].push(i);})('5c7f360c',{"root":"e0qn3J8j7xw1","version":"2022-05-04","animations":[{"elements":{"e0qn3J8j7xw2":{"opacity":[{"t":0,"v":0},{"t":800,"v":1}]},"e0qn3J8j7xw3":{"transform":{"data":{"t":{"x":-50.974998,"y":-51.654998}},"keys":{"o":[{"t":800,"v":{"x":50.974998,"y":51.654998,"type":"corner"}},{"t":1800,"v":{"x":-85.585004,"y":51.654998,"type":"corner"}}]}}},"e0qn3J8j7xw4":{"transform":{"data":{"t":{"x":-69.09,"y":-33.545002}},"keys":{"o":[{"t":800,"v":{"x":69.09,"y":33.545002,"type":"corner"}},{"t":1800,"v":{"x":-67.470002,"y":33.545002,"type":"corner"}}]}}},"e0qn3J8j7xw5":{"transform":{"data":{"t":{"x":-15.845,"y":-8.035}},"keys":{"o":[{"t":800,"v":{"x":15.845,"y":8.035,"type":"corner"}},{"t":1800,"v":{"x":-120.715002,"y":8.035,"type":"corner"}}]}}},"e0qn3J8j7xw6":{"transform":{"data":{"t":{"x":-94.599998,"y":-86.789997}},"keys":{"o":[{"t":800,"v":{"x":94.599998,"y":86.789997,"type":"corner"}},{"t":1800,"v":{"x":-41.960004,"y":86.789997,"type":"corner"}}]}}},"e0qn3J8j7xw7":{"transform":{"data":{"t":{"x":-59.469999,"y":-43.169999}},"keys":{"o":[{"t":800,"v":{"x":59.469999,"y":43.169999,"type":"corner"}},{"t":1800,"v":{"x":-77.090003,"y":43.169999,"type":"corner"}}]}}},"e0qn3J8j7xw8":{"opacity":[{"t":1700,"v":0},{"t":2500,"v":1}]}},"s":"MPDA1M2EyNDk4YjljOTLk4ODliOTBMOTY5NTQF5NjE1YTU3NTc1NzUzXNDk4YjkwOTk4YzhhOOWI5MDk2OTU0OTYxNTAg1MzQ5OTA5YjhjOTkS4ODliSzkwOTY5NTlhVNDlRNjE1ODUzNDk4ZBDkwOTNNOTM0OTYxNTXg1MzQ5TU44OE05MzlMiOGM5OTk1ODg5YjhjUNDk2MVI4ZDg4OTM5YKThjNTM0OTlhOTc4YzUhjOGI0OTYxNThhNA|D"}],"options":"MHDAxMDg4MmY4MDgxRTJZlN2Y4MTJmNDcyZjcK5WDdjNmU3MU4yZjhhH"},'__SVGATOR_PLAYER__',window)]]></script></svg>