<svg xmlns="http://www.w3.org/2000/svg" viewBox="0 0 375.07 102.63"><defs><style>.cls-1{fill:#65a2ab;}.cls-2{fill:#eedfb0;}.cls-3{fill:#727271;}</style></defs><g id="Layer_2" data-name="Layer 2"><path class="cls-1" d="M14.71,15.39V87.93H87.25l14.7,14.7H0V.68Z"/><polygon class="cls-2" points="50.93 15.39 87.25 15.39 87.25 51.7 101.95 66.41 101.95 0.68 36.23 0.68 50.93 15.39"/><polygon class="cls-2" points="16.98 0.68 0 0.68 14.71 15.39 31.69 15.39 16.98 0.68"/><polygon class="cls-2" points="87.25 70.95 87.25 87.93 101.95 102.63 101.95 85.65 87.25 70.95"/><polygon class="cls-3" points="87.25 51.7 50.93 15.39 31.69 15.39 87.25 70.95 87.25 51.7"/></g><g id="Layer_3" data-name="Layer 3"><path class="cls-1" d="M155.33,66.66h-5.89l-2.61-3.15A13.12,13.12,0,0,1,138,66.93q-5,0-7.65-2.57a9.15,9.15,0,0,1-2.7-7,7.71,7.71,0,0,1,1.69-5.06,20.45,20.45,0,0,1,4.66-4,23,23,0,0,1-1.55-1.91,11.46,11.46,0,0,1-1.17-2.18,6.86,6.86,0,0,1-.61-2.79,6.67,6.67,0,0,1,2.16-5.11,8,8,0,0,1,5.67-2,7.61,7.61,0,0,1,5.49,2,6.79,6.79,0,0,1,2.11,5.13q0,3.33-3.42,5.67l-2.34,1.62,6.75,8.06a11.17,11.17,0,0,0,1.71-6.44h4.41q-.22,6.39-3.19,9.86Zm-11.25-6.39-7.6-9.05a24.25,24.25,0,0,0-2.21,1.67,7.27,7.27,0,0,0-1.44,1.84,5.06,5.06,0,0,0-.67,2.57,5.12,5.12,0,0,0,1.64,3.91A5.87,5.87,0,0,0,138,62.74,9,9,0,0,0,144.08,60.27Zm-2.43-18.72a3.11,3.11,0,0,0-.9-2.27,3,3,0,0,0-2.29-.93,3,3,0,0,0-3.15,3.15q0,1.53,2.47,4.41l1.53-1Q141.65,43.3,141.65,41.55Z"/><path class="cls-1" d="M192,66.66h-5.18l-2.2-6.44H171.93l-2.2,6.44h-5.18l11.75-32h3.91Zm-8.73-10.58-4.86-14.22-5,14.22Z"/><path class="cls-1" d="M218,58.84a7.1,7.1,0,0,1-2.74,5.89,11.13,11.13,0,0,1-7.12,2.16,16.1,16.1,0,0,1-5.45-.83,11.52,11.52,0,0,1-4.25-2.79l2.73-2.73a9.53,9.53,0,0,0,7,2.65,6.9,6.9,0,0,0,4.17-1.09A3.67,3.67,0,0,0,213.83,59a3.56,3.56,0,0,0-1.08-2.85,5.53,5.53,0,0,0-3-1.15l-3.24-.47a9.48,9.48,0,0,1-5.16-2.19,6.75,6.75,0,0,1-2-5.28,7.38,7.38,0,0,1,2.47-5.81A9.7,9.7,0,0,1,208.47,39a13.73,13.73,0,0,1,4.74.73A11.22,11.22,0,0,1,217,42.13l-2.61,2.62a8.45,8.45,0,0,0-6.05-2.11,5.3,5.3,0,0,0-3.68,1.17,4,4,0,0,0-1.29,3.1,3.16,3.16,0,0,0,1,2.54,5.76,5.76,0,0,0,3,1.23l3.27.5a9.92,9.92,0,0,1,5.08,2A7.24,7.24,0,0,1,218,58.84Z"/><path class="cls-1" d="M244,58.84a7.09,7.09,0,0,1-2.73,5.89,11.15,11.15,0,0,1-7.12,2.16,16.06,16.06,0,0,1-5.45-.83,11.56,11.56,0,0,1-4.26-2.79l2.74-2.73a9.52,9.52,0,0,0,7,2.65,6.93,6.93,0,0,0,4.18-1.09A3.67,3.67,0,0,0,239.83,59a3.56,3.56,0,0,0-1.08-2.85,5.47,5.47,0,0,0-3-1.15l-3.23-.47a9.42,9.42,0,0,1-5.16-2.19,6.75,6.75,0,0,1-2-5.28,7.4,7.4,0,0,1,2.46-5.81,9.72,9.72,0,0,1,6.7-2.19,13.81,13.81,0,0,1,4.74.73A11.22,11.22,0,0,1,243,42.13l-2.62,2.62a8.42,8.42,0,0,0-6-2.11,5.3,5.3,0,0,0-3.68,1.17,4,4,0,0,0-1.29,3.1,3.12,3.12,0,0,0,1,2.54,5.72,5.72,0,0,0,3,1.23l3.27.5a9.92,9.92,0,0,1,5.08,2A7.23,7.23,0,0,1,244,58.84Z"/><path class="cls-1" d="M270.73,45.87a39.44,39.44,0,0,1,.44,7.08,39.65,39.65,0,0,1-.44,7.09,8,8,0,0,1-2.33,4.08,10.43,10.43,0,0,1-14.16,0A8,8,0,0,1,251.91,60a39.42,39.42,0,0,1-.45-7.09,39.22,39.22,0,0,1,.45-7.08,8,8,0,0,1,2.33-4.08,10.43,10.43,0,0,1,14.16,0A8,8,0,0,1,270.73,45.87Zm-4,12.9A37.61,37.61,0,0,0,267,53a37.85,37.85,0,0,0-.31-5.83,5.12,5.12,0,0,0-1.31-2.71,5.75,5.75,0,0,0-8.16,0,5.29,5.29,0,0,0-1.31,2.75,36.25,36.25,0,0,0-.31,5.79,35.85,35.85,0,0,0,.31,5.78,5.3,5.3,0,0,0,1.31,2.73,5.68,5.68,0,0,0,8.16,0A5.13,5.13,0,0,0,266.71,58.77Z"/><path class="cls-1" d="M298.68,58.46a10.08,10.08,0,0,1-3.34,6.22,10.47,10.47,0,0,1-13.53-.56A8.32,8.32,0,0,1,279.5,60,38.25,38.25,0,0,1,279,53a38.12,38.12,0,0,1,.46-7.06,8.27,8.27,0,0,1,2.31-4.1,10.47,10.47,0,0,1,13.53-.56,10.27,10.27,0,0,1,3.34,6.22h-4.24A6.21,6.21,0,0,0,292.55,44a5.77,5.77,0,0,0-7.7.43,5.18,5.18,0,0,0-1.34,2.75A36.25,36.25,0,0,0,283.2,53a36.31,36.31,0,0,0,.31,5.8,5.21,5.21,0,0,0,1.34,2.75,5.81,5.81,0,0,0,7.72.42,6.31,6.31,0,0,0,1.95-3.46Z"/><path class="cls-1" d="M310.86,66.66h-4.15V39.25h4.15Z"/><path class="cls-1" d="M341.55,66.66h-4.43l-1.89-5.51H324.42l-1.89,5.51H318.1l10-27.41h3.35Zm-7.47-9-4.16-12.16-4.27,12.16Z"/><path class="cls-1" d="M363,43h-7.55V66.66h-4.16V43h-7.54V39.25H363Z"/><path class="cls-1" d="M374.78,66.66h-4.16V39.25h4.16Z"/><path class="cls-1" d="M142.7,95.64h-11l-2,5.61H128l8.34-23H138q2.11,5.77,4.21,11.49t4.17,11.48h-1.68Zm-5.58-15.48c-.08.25-.26.72-.51,1.42s-.54,1.54-.87,2.5l-1.07,3c-.39,1.08-.75,2.09-1.09,3.05s-.65,1.81-.91,2.56-.45,1.26-.56,1.55h10.13l-3-8.38-1-2.87c-.34-1-.68-1.91-1-2.88Z"/><path class="cls-1" d="M162,86.57a4.57,4.57,0,0,0-1.11-.38,4.82,4.82,0,0,0-1-.12,5.11,5.11,0,0,0-1.94.36,4.46,4.46,0,0,0-1.54,1,4.76,4.76,0,0,0-1,1.62,5.73,5.73,0,0,0-.37,2.13v10h-1.45V84.88H155v2.81h.1a4.74,4.74,0,0,1,2.25-2.35,6.81,6.81,0,0,1,2.8-.62,11.14,11.14,0,0,1,1.32.08,4.08,4.08,0,0,1,1.12.31Z"/><path class="cls-1" d="M177.45,101a7,7,0,0,1-2.64.48,8.27,8.27,0,0,1-2.65-.44,6.23,6.23,0,0,1-2.33-1.44A7.22,7.22,0,0,1,168.18,97a12.45,12.45,0,0,1,0-7.82,7.22,7.22,0,0,1,1.65-2.59,6.23,6.23,0,0,1,2.33-1.44,8.27,8.27,0,0,1,2.65-.44,6.79,6.79,0,0,1,2.64.49,8,8,0,0,1,2.15,1.32l-.93,1.09a5.37,5.37,0,0,0-1.63-1.1,4.8,4.8,0,0,0-2-.45,5.52,5.52,0,0,0-4.45,1.82A7.81,7.81,0,0,0,169,93.13a7.93,7.93,0,0,0,1.56,5.27,5.49,5.49,0,0,0,4.45,1.83,4.45,4.45,0,0,0,2-.5,8.5,8.5,0,0,0,1.63-1l.93,1A7.58,7.58,0,0,1,177.45,101Z"/><path class="cls-1" d="M197.77,101.25V90.79a4.82,4.82,0,0,0-1.15-3.48,4.54,4.54,0,0,0-3.42-1.21,5.16,5.16,0,0,0-2,.38,5,5,0,0,0-2.7,2.74,5.68,5.68,0,0,0-.39,2.13v9.9h-1.45V77.39h1.45V87.72h.1a5,5,0,0,1,2.32-2.26,6.86,6.86,0,0,1,2.94-.71,5.82,5.82,0,0,1,4.24,1.44,5.43,5.43,0,0,1,1.49,4.1v11Z"/><path class="cls-1" d="M207.69,79.87V78.25h1.65v1.62Zm.13,21.38V84.88h1.45v16.37Z"/><path class="cls-1" d="M222.24,101.25a3,3,0,0,1-2.6-1,4.7,4.7,0,0,1-.73-2.8V86.14h-2.24V84.88h2.24V80.56h1.45v4.32h3v1.26h-3V97.32a7,7,0,0,0,.08,1.06,2,2,0,0,0,.35.86,1.7,1.7,0,0,0,.74.56,3.31,3.31,0,0,0,1.24.2h1v1.25Z"/><path class="cls-1" d="M231,93.3a10.94,10.94,0,0,0,.25,2.65,6.18,6.18,0,0,0,.94,2.22,4.84,4.84,0,0,0,1.75,1.5,5.86,5.86,0,0,0,2.67.56,5.57,5.57,0,0,0,2.08-.4,7.74,7.74,0,0,0,1.88-1l.83,1a6.63,6.63,0,0,1-2.24,1.24,8.24,8.24,0,0,1-2.48.38,9.83,9.83,0,0,1-2.51-.33,5.39,5.39,0,0,1-2.26-1.25,6.91,6.91,0,0,1-1.65-2.54,11.5,11.5,0,0,1-.64-4.19,11.8,11.8,0,0,1,.61-4.11,7.48,7.48,0,0,1,1.56-2.61,5,5,0,0,1,2.11-1.35,7.38,7.38,0,0,1,2.33-.38,6.38,6.38,0,0,1,2.83.58,5.69,5.69,0,0,1,2,1.56,6.68,6.68,0,0,1,1.21,2.36,10.8,10.8,0,0,1,.4,3V93.3Zm10.23-1.19a7.06,7.06,0,0,0-1.4-4.63A4.59,4.59,0,0,0,236.22,86a4.53,4.53,0,0,0-3.68,1.6,7.55,7.55,0,0,0-1.5,4.54Z"/><path class="cls-1" d="M259.39,101a7,7,0,0,1-2.64.48,8.33,8.33,0,0,1-2.66-.44,6.31,6.31,0,0,1-2.33-1.44A7.22,7.22,0,0,1,250.11,97a12.64,12.64,0,0,1,0-7.82,7.22,7.22,0,0,1,1.65-2.59,6.31,6.31,0,0,1,2.33-1.44,8.33,8.33,0,0,1,2.66-.44,6.86,6.86,0,0,1,2.64.49,8,8,0,0,1,2.14,1.32l-.92,1.09a5.42,5.42,0,0,0-1.64-1.1,4.72,4.72,0,0,0-2-.45,5.54,5.54,0,0,0-4.46,1.82,7.86,7.86,0,0,0-1.55,5.24,8,8,0,0,0,1.55,5.27,5.52,5.52,0,0,0,4.46,1.83,4.37,4.37,0,0,0,2-.5,8.6,8.6,0,0,0,1.64-1l.92,1A7.53,7.53,0,0,1,259.39,101Z"/><path class="cls-1" d="M273.56,101.25a3,3,0,0,1-2.61-1,4.78,4.78,0,0,1-.72-2.8V86.14H268V84.88h2.25V80.56h1.45v4.32h3v1.26h-3V97.32a7,7,0,0,0,.08,1.06,2,2,0,0,0,.35.86,1.64,1.64,0,0,0,.74.56,3.31,3.31,0,0,0,1.24.2h1v1.25Z"/><path class="cls-1" d="M294.31,96.84a4,4,0,0,1-.41,1.83,4.27,4.27,0,0,1-1.2,1.46,6,6,0,0,1-2,1,9.29,9.29,0,0,1-2.72.36,12.56,12.56,0,0,1-3.43-.46,8.68,8.68,0,0,1-3-1.52l.85-1.12a7.73,7.73,0,0,0,2.66,1.4,10.71,10.71,0,0,0,3.15.45,7.89,7.89,0,0,0,1.55-.17,4.66,4.66,0,0,0,1.5-.56,3.37,3.37,0,0,0,1.13-1.06,2.94,2.94,0,0,0,.44-1.65,2.54,2.54,0,0,0-.39-1.44,3,3,0,0,0-1-.94,6.09,6.09,0,0,0-1.47-.58,13.71,13.71,0,0,0-1.65-.32c-.73-.1-1.44-.23-2.13-.38a6.72,6.72,0,0,1-1.85-.64,3.55,3.55,0,0,1-1.3-1.16,3.33,3.33,0,0,1-.5-1.92,4.48,4.48,0,0,1,.43-2A4,4,0,0,1,284.17,86a5.6,5.6,0,0,1,1.86-.93,8.2,8.2,0,0,1,2.38-.33,10.68,10.68,0,0,1,3,.37,7.9,7.9,0,0,1,2.35,1.15l-.8,1.15a10.3,10.3,0,0,0-2-1,7.77,7.77,0,0,0-2.44-.36,5.87,5.87,0,0,0-3.22.82A2.78,2.78,0,0,0,284,89.3a2.18,2.18,0,0,0,.38,1.33,2.84,2.84,0,0,0,1,.83,6.45,6.45,0,0,0,1.5.47c.57.11,1.18.21,1.81.3s1.33.25,2,.43a6.08,6.08,0,0,1,1.8.77,4.23,4.23,0,0,1,1.3,1.33A3.89,3.89,0,0,1,294.31,96.84Z"/><path class="cls-3" d="M164.91.28,152.9,33h5.29l2.25-6.58h12.93L175.62,33h5.29L168.91.28Zm-3,21.94L167,7.68l5,14.54Z"/><polygon class="cls-3" points="184.29 4.74 198.78 4.74 183.65 28.75 183.65 33.03 204.63 33.03 204.63 28.57 189.4 28.57 204.63 4.32 204.63 0.28 184.29 0.28 184.29 4.74"/><polygon class="cls-3" points="208.85 4.74 223.34 4.74 208.21 28.75 208.21 33.03 229.19 33.03 229.19 28.57 213.96 28.57 229.19 4.32 229.19 0.28 208.85 0.28 208.85 4.74"/><polygon class="cls-3" points="134.8 0.28 129.83 0.28 129.83 33.03 150.58 33.03 150.58 28.57 134.8 28.57 134.8 0.28"/><path class="cls-3" d="M311,3.31a12.48,12.48,0,0,0-16.93,0,9.55,9.55,0,0,0-2.78,4.88,47.94,47.94,0,0,0-.53,8.46,48,48,0,0,0,.53,8.47A9.57,9.57,0,0,0,294.09,30,12.48,12.48,0,0,0,311,30a9.57,9.57,0,0,0,2.78-4.87,48,48,0,0,0,.53-8.47,47.94,47.94,0,0,0-.53-8.46A9.55,9.55,0,0,0,311,3.31ZM309,23.6a6.16,6.16,0,0,1-1.57,3.22,6.78,6.78,0,0,1-9.75,0,6.34,6.34,0,0,1-1.56-3.27,43,43,0,0,1-.37-6.9,43.34,43.34,0,0,1,.37-6.92,6.37,6.37,0,0,1,1.56-3.29,6.89,6.89,0,0,1,9.75,0A6.18,6.18,0,0,1,309,9.68a45.54,45.54,0,0,1,.36,7A45.06,45.06,0,0,1,309,23.6Z"/><path class="cls-3" d="M284.67,15.48a8.77,8.77,0,0,0,1.82-5.64,9.15,9.15,0,0,0-2.78-6.9A10.27,10.27,0,0,0,276.32.28H263.63V33h5V19.23h6.21L281.7,33h5.8L280,18.54A8.77,8.77,0,0,0,284.67,15.48ZM268.59,15V4.74H276A5.78,5.78,0,0,1,280,6.12a4.85,4.85,0,0,1,1.52,3.77A4.8,4.8,0,0,1,280,13.64,5.87,5.87,0,0,1,276,15Z"/><polygon class="cls-3" points="340.09 0.28 340.09 0.28 317.09 0.28 317.09 4.74 326.1 4.74 326.1 33.03 331.07 33.03 331.07 4.74 338.44 4.74 340.09 0.28"/><path class="cls-3" d="M243.91.28,231.9,33h5.29l2.25-6.58h12.93L254.62,33h5.29L247.91.28Zm-3,21.94L246,7.68l5,14.54Z"/><polygon class="cls-3" points="342.91 4.64 342.91 4.74 351.93 4.74 351.93 33.03 356.9 33.03 356.9 4.74 365.91 4.74 365.91 0.28 344.52 0.28 342.91 4.64"/><rect class="cls-3" x="370.1" y="0.28" width="4.97" height="32.75"/></g></svg>