<svg id="Layer_1" data-name="Layer 1" xmlns="http://www.w3.org/2000/svg" viewBox="0 0 612 143.34"><defs><style>.cls-1{fill:#231f20;}.cls-2{fill:#c09859;}</style></defs><path class="cls-1" d="M126.57,128.37h-.69a.35.35,0,0,1-.21-.06.57.57,0,0,1-.12-.18l-1.47-3.63H118l-1.47,3.63a.33.33,0,0,1-.12.17.32.32,0,0,1-.22.07h-.68l5.11-12.49h.89Zm-2.76-4.54-2.54-6.31a5.68,5.68,0,0,1-.26-.74c0,.14-.07.27-.12.4a2.84,2.84,0,0,1-.13.35l-2.54,6.3Z"/><path class="cls-1" d="M145.39,128.37h-.78a.49.49,0,0,1-.25-.05.53.53,0,0,1-.19-.18l-4-5.07a.73.73,0,0,0-.14-.16.45.45,0,0,0-.17-.11.71.71,0,0,0-.22-.06l-.31,0h-1.64v5.65h-.91V115.88H140a5.26,5.26,0,0,1,3.23.83,2.93,2.93,0,0,1,1.07,2.45,3.26,3.26,0,0,1-.25,1.31,3.06,3.06,0,0,1-.71,1,3.88,3.88,0,0,1-1.12.73,5.83,5.83,0,0,1-1.48.38,1.25,1.25,0,0,1,.38.35Zm-5.54-6.32a5.19,5.19,0,0,0,1.48-.2,3.2,3.2,0,0,0,1.12-.57,2.41,2.41,0,0,0,.69-.89,2.78,2.78,0,0,0,.24-1.17,2.3,2.3,0,0,0-.87-2,4.23,4.23,0,0,0-2.54-.65h-2.29v5.46Z"/><path class="cls-1" d="M164.57,126.27a.2.2,0,0,1,.15.06l.36.38a5.5,5.5,0,0,1-.85.75,4.61,4.61,0,0,1-1,.56,5.92,5.92,0,0,1-1.19.37,7.83,7.83,0,0,1-1.42.12,6.12,6.12,0,0,1-2.38-.45,5.1,5.1,0,0,1-1.86-1.29,5.91,5.91,0,0,1-1.21-2,7.8,7.8,0,0,1-.43-2.63,7.47,7.47,0,0,1,.44-2.6,6,6,0,0,1,1.24-2,5.43,5.43,0,0,1,1.91-1.31,6.29,6.29,0,0,1,2.45-.46,6.13,6.13,0,0,1,2.27.39,6.24,6.24,0,0,1,1.8,1.12l-.27.4a.25.25,0,0,1-.22.11.69.69,0,0,1-.34-.2,4,4,0,0,0-.67-.42,5.29,5.29,0,0,0-1-.43,5.19,5.19,0,0,0-1.52-.2,5.37,5.37,0,0,0-2.07.39A4.64,4.64,0,0,0,157.1,118a5.22,5.22,0,0,0-1.06,1.77,6.92,6.92,0,0,0-.38,2.34,6.77,6.77,0,0,0,.39,2.37,5.06,5.06,0,0,0,1,1.76,4.5,4.5,0,0,0,1.59,1.1,5,5,0,0,0,2,.39,7.16,7.16,0,0,0,1.2-.09,4.49,4.49,0,0,0,1-.27,3.76,3.76,0,0,0,.82-.43,5.87,5.87,0,0,0,.76-.6l.08-.06Z"/><path class="cls-1" d="M185.26,115.88v12.49h-.91v-6h-7.82v6h-.91V115.88h.91v5.83h7.82v-5.83Z"/><path class="cls-1" d="M198,128.37h-.91V115.88H198Z"/><path class="cls-1" d="M217.93,116.65h-4.39v11.72h-.91V116.65h-4.42v-.77h9.72Z"/><path class="cls-1" d="M235.66,127.62l0,.75h-7.49V115.88h7.49v.75h-6.58v5.05h5.48v.73h-5.48v5.21Z"/><path class="cls-1" d="M255.25,126.27a.2.2,0,0,1,.15.06l.36.38a5.5,5.5,0,0,1-.85.75,4.78,4.78,0,0,1-1,.56,6,6,0,0,1-1.2.37,7.76,7.76,0,0,1-1.42.12,6.12,6.12,0,0,1-2.38-.45,5.27,5.27,0,0,1-1.86-1.29,5.91,5.91,0,0,1-1.21-2,7.8,7.8,0,0,1-.42-2.63,7.24,7.24,0,0,1,.44-2.6,5.85,5.85,0,0,1,1.23-2A5.43,5.43,0,0,1,249,116.2a6.31,6.31,0,0,1,2.46-.46,6.17,6.17,0,0,1,2.27.39,6.38,6.38,0,0,1,1.8,1.12l-.28.4a.24.24,0,0,1-.22.11.74.74,0,0,1-.34-.2,4.25,4.25,0,0,0-.66-.42,5.67,5.67,0,0,0-1.06-.43,5.16,5.16,0,0,0-1.51-.2,5.3,5.3,0,0,0-2.07.39,4.59,4.59,0,0,0-1.62,1.11,5.38,5.38,0,0,0-1.06,1.77,6.92,6.92,0,0,0-.38,2.34,6.77,6.77,0,0,0,.39,2.37,5.22,5.22,0,0,0,1.05,1.76,4.5,4.5,0,0,0,1.59,1.1,5,5,0,0,0,2,.39,7.16,7.16,0,0,0,1.2-.09,4.76,4.76,0,0,0,1-.27,4.27,4.27,0,0,0,.82-.43,6.57,6.57,0,0,0,.75-.6l.09-.06Z"/><path class="cls-1" d="M274.43,116.65H270v11.72h-.91V116.65h-4.42v-.77h9.72Z"/><path class="cls-1" d="M289.23,127.73a4,4,0,0,0,1.61-.32,3.26,3.26,0,0,0,1.2-.87,3.86,3.86,0,0,0,.76-1.31,5,5,0,0,0,.26-1.63v-7.72h.9v7.72a5.51,5.51,0,0,1-.33,1.93,4.69,4.69,0,0,1-.94,1.57,4.3,4.3,0,0,1-1.49,1,5.32,5.32,0,0,1-3.95,0,4.4,4.4,0,0,1-1.49-1,4.69,4.69,0,0,1-.94-1.57,5.51,5.51,0,0,1-.33-1.93v-7.72h.91v7.72a5,5,0,0,0,.26,1.62,4.16,4.16,0,0,0,.75,1.32,3.5,3.5,0,0,0,1.2.87A4,4,0,0,0,289.23,127.73Z"/><path class="cls-1" d="M314.23,128.37h-.77a.47.47,0,0,1-.25-.05.41.41,0,0,1-.19-.18l-4-5.07a1.17,1.17,0,0,0-.15-.16.45.45,0,0,0-.17-.11.64.64,0,0,0-.22-.06l-.31,0h-1.64v5.65h-.9V115.88h3.19a5.26,5.26,0,0,1,3.23.83,2.93,2.93,0,0,1,1.07,2.45,3.43,3.43,0,0,1-.24,1.31,3.24,3.24,0,0,1-.72,1,3.74,3.74,0,0,1-1.12.73,5.83,5.83,0,0,1-1.48.38,1.15,1.15,0,0,1,.38.35Zm-5.54-6.32a5.27,5.27,0,0,0,1.49-.2,3.15,3.15,0,0,0,1.11-.57,2.41,2.41,0,0,0,.69-.89,2.78,2.78,0,0,0,.24-1.17,2.3,2.3,0,0,0-.87-2,4.23,4.23,0,0,0-2.54-.65h-2.29v5.46Z"/><path class="cls-1" d="M332,127.62l0,.75h-7.49V115.88H332v.75h-6.58v5.05h5.47v.73h-5.47v5.21Z"/><path class="cls-1" d="M366,128.37h-.79a.93.93,0,0,1-.26,0,.9.9,0,0,1-.24-.16l-1.81-1.78a5.81,5.81,0,0,1-1.89,1.51,5.94,5.94,0,0,1-1.2.45,5.71,5.71,0,0,1-1.33.15,4,4,0,0,1-1.31-.22,3.36,3.36,0,0,1-1.15-.65,3.17,3.17,0,0,1-.82-1,3,3,0,0,1-.31-1.41,3.15,3.15,0,0,1,.23-1.22,4,4,0,0,1,.62-1.06,4.62,4.62,0,0,1,.95-.86,5.53,5.53,0,0,1,1.18-.62,5.6,5.6,0,0,1-.94-1.37,3.32,3.32,0,0,1-.31-1.43,2.86,2.86,0,0,1,.22-1.14,2.78,2.78,0,0,1,.64-.91,2.89,2.89,0,0,1,1-.61,3.49,3.49,0,0,1,1.29-.22,3,3,0,0,1,1.12.2,3.12,3.12,0,0,1,.92.55,2.43,2.43,0,0,1,.63.8,2.14,2.14,0,0,1,.25.95l-.47.09a.25.25,0,0,1-.17,0,.32.32,0,0,1-.12-.17,2.07,2.07,0,0,0-.19-.54,1.79,1.79,0,0,0-.41-.56,2.09,2.09,0,0,0-.65-.45,2.14,2.14,0,0,0-.91-.18,2.69,2.69,0,0,0-1,.16,2.06,2.06,0,0,0-.74.46,2.16,2.16,0,0,0-.49.7,2.37,2.37,0,0,0-.17.9,2.85,2.85,0,0,0,.37,1.38,6.45,6.45,0,0,0,1.15,1.42l3.95,3.88a6.1,6.1,0,0,0,.62-1.32,6.21,6.21,0,0,0,.31-1.33.3.3,0,0,1,.07-.18.19.19,0,0,1,.16-.07h.48a5.52,5.52,0,0,1-.31,1.71,6.3,6.3,0,0,1-.84,1.68Zm-7.72-6.51a4.71,4.71,0,0,0-1.06.58,3.91,3.91,0,0,0-.8.77,3.51,3.51,0,0,0-.5.91,2.85,2.85,0,0,0-.18,1,2.61,2.61,0,0,0,.26,1.19,2.79,2.79,0,0,0,1.6,1.35,3.23,3.23,0,0,0,1,.17,4.43,4.43,0,0,0,1.18-.15,4.39,4.39,0,0,0,1-.39,4.88,4.88,0,0,0,.88-.6,5.24,5.24,0,0,0,.74-.75l-4.06-4Z"/><path class="cls-1" d="M399.65,122.12a7.4,7.4,0,0,1-.43,2.61,5.65,5.65,0,0,1-1.22,2,5.27,5.27,0,0,1-1.88,1.24,6.57,6.57,0,0,1-2.43.43h-4.56V115.88h4.56a6.57,6.57,0,0,1,2.43.43,5.17,5.17,0,0,1,1.88,1.25,5.52,5.52,0,0,1,1.22,2A7.39,7.39,0,0,1,399.65,122.12Zm-.93,0a7,7,0,0,0-.36-2.33,5,5,0,0,0-1-1.73,4.4,4.4,0,0,0-1.59-1.08,5.42,5.42,0,0,0-2.05-.37H390v11h3.65a5.42,5.42,0,0,0,2.05-.37,4.4,4.4,0,0,0,1.59-1.08,5,5,0,0,0,1-1.73A7,7,0,0,0,398.72,122.12Z"/><path class="cls-1" d="M418.18,127.62l0,.75h-7.49V115.88h7.49v.75h-6.58v5.05h5.48v.73h-5.48v5.21Z"/><path class="cls-1" d="M435.11,117.4a.25.25,0,0,1-.23.15.52.52,0,0,1-.3-.17,3.29,3.29,0,0,0-.49-.36,4.27,4.27,0,0,0-.77-.37,3.44,3.44,0,0,0-1.14-.16,3.36,3.36,0,0,0-1.2.19,2.55,2.55,0,0,0-.86.53,2.08,2.08,0,0,0-.53.78,2.23,2.23,0,0,0-.19.92,1.92,1.92,0,0,0,.27,1.06,2.49,2.49,0,0,0,.71.7,4.31,4.31,0,0,0,1,.49l1.15.4c.39.13.78.27,1.15.42a4.26,4.26,0,0,1,1,.59,2.72,2.72,0,0,1,.71.87,2.77,2.77,0,0,1,.27,1.29,4,4,0,0,1-.27,1.47,3.41,3.41,0,0,1-.78,1.21,3.75,3.75,0,0,1-1.25.81,4.52,4.52,0,0,1-1.7.29,4.77,4.77,0,0,1-2.12-.43,5,5,0,0,1-1.57-1.2l.25-.39a.3.3,0,0,1,.25-.13.31.31,0,0,1,.2.11l.3.26.42.33a4.44,4.44,0,0,0,.58.34,4.38,4.38,0,0,0,.75.26,4,4,0,0,0,1,.1,3.67,3.67,0,0,0,1.33-.22,3,3,0,0,0,1-.62,2.43,2.43,0,0,0,.61-.92,2.9,2.9,0,0,0,.22-1.14,2,2,0,0,0-.27-1.09,2.32,2.32,0,0,0-.71-.72,4.72,4.72,0,0,0-1-.48l-1.15-.38c-.39-.12-.78-.26-1.15-.41a4.12,4.12,0,0,1-1-.59,2.57,2.57,0,0,1-.71-.89,3,3,0,0,1-.27-1.34,3.15,3.15,0,0,1,.24-1.21,3,3,0,0,1,.69-1,3.45,3.45,0,0,1,1.14-.71,4.11,4.11,0,0,1,1.54-.27,4.74,4.74,0,0,1,1.74.3,4.23,4.23,0,0,1,1.41.95Z"/><path class="cls-1" d="M447.52,128.37h-.9V115.88h.9Z"/><path class="cls-1" d="M469.32,122.7v4.45a7.53,7.53,0,0,1-2,1,7.35,7.35,0,0,1-2.38.35,7.48,7.48,0,0,1-2.67-.45,5.65,5.65,0,0,1-2-1.29,5.76,5.76,0,0,1-1.28-2,8.17,8.17,0,0,1,0-5.26,5.77,5.77,0,0,1,1.26-2,5.44,5.44,0,0,1,2-1.29,7.14,7.14,0,0,1,2.61-.45,9.13,9.13,0,0,1,1.32.09,6.11,6.11,0,0,1,1.12.29,5.12,5.12,0,0,1,1,.47,6.47,6.47,0,0,1,.87.64l-.25.39c-.08.14-.2.17-.37.09a1.55,1.55,0,0,1-.38-.24,3.56,3.56,0,0,0-.68-.41,5.7,5.7,0,0,0-1.07-.38,6.35,6.35,0,0,0-1.56-.17,5.91,5.91,0,0,0-2.2.39,4.65,4.65,0,0,0-1.68,1.11,5.09,5.09,0,0,0-1.07,1.77,6.92,6.92,0,0,0-.37,2.34,7,7,0,0,0,.37,2.37,4.8,4.8,0,0,0,1.09,1.78,4.71,4.71,0,0,0,1.72,1.12,6.36,6.36,0,0,0,2.29.39,6.67,6.67,0,0,0,1-.07,6.54,6.54,0,0,0,.9-.2,4.91,4.91,0,0,0,.83-.32c.27-.12.54-.27.82-.42V123.4h-2.4a.25.25,0,0,1-.16-.06.2.2,0,0,1-.06-.14v-.5Z"/><path class="cls-1" d="M490.09,115.88v12.49h-.43a.38.38,0,0,1-.19,0,.42.42,0,0,1-.14-.13l-8.12-10.85a4.63,4.63,0,0,1,0,.51v10.51h-.79V115.88h.45a.5.5,0,0,1,.19,0,.4.4,0,0,1,.14.13l8.1,10.82a4.32,4.32,0,0,1,0-.5V115.88Z"/><path class="cls-2" d="M52.49,89.35v2.58H12V16.25h3v73.1Z"/><path class="cls-2" d="M121.55,91.93h-2.31a1.25,1.25,0,0,1-1.19-.91l-9.85-24H69.33L59.48,91a1.16,1.16,0,0,1-1.23.91H56L87.37,16.25h2.85ZM107.23,64.8,89.9,22.65c-.4-1-.77-2-1.13-3.23a23.36,23.36,0,0,1-1.13,3.23L70.3,64.8Z"/><path class="cls-2" d="M183,17.11a3.11,3.11,0,0,1-.53,1.56L131.67,89.4h51.14v2.53H127.63V91a2.2,2.2,0,0,1,.11-.73,2.12,2.12,0,0,1,.38-.62L179,18.78H128.76V16.25H183Z"/><path class="cls-2" d="M247.14,17.11a3,3,0,0,1-.54,1.56L195.78,89.4h51.14v2.53H191.74V91a2.2,2.2,0,0,1,.11-.73,2.12,2.12,0,0,1,.38-.62L243.1,18.78H192.87V16.25h54.27Z"/><path class="cls-2" d="M319.16,91.93h-2.31a1.25,1.25,0,0,1-1.19-.91l-9.85-24H267l-9.86,24a1.16,1.16,0,0,1-1.23.91h-2.21L285,16.25h2.85ZM304.84,64.8,287.51,22.65c-.4-1-.77-2-1.13-3.23a22.12,22.12,0,0,1-1.13,3.23L267.91,64.8Z"/><path class="cls-2" d="M383.33,91.93h-2.42a3.05,3.05,0,0,1-1.05-.16A2,2,0,0,1,379,91l-26.7-32.68a5.66,5.66,0,0,0-.89-1,4.41,4.41,0,0,0-1-.62A5.76,5.76,0,0,0,349,56.4a14.78,14.78,0,0,0-1.91-.1h-11V91.93h-3V16.25h18.25q12.33,0,18.74,4.79t6.4,14.53a19.21,19.21,0,0,1-1.67,8.1,18.8,18.8,0,0,1-4.68,6.3,22.82,22.82,0,0,1-7.32,4.25,33.17,33.17,0,0,1-9.53,1.91,6.9,6.9,0,0,1,1.88,1.62ZM336.06,54h14.43a34,34,0,0,0,9.61-1.27,20.89,20.89,0,0,0,7.27-3.66,16.14,16.14,0,0,0,4.57-5.79,17.79,17.79,0,0,0,1.59-7.64q0-8.78-5.71-12.92t-16.47-4.15H336.06Z"/><path class="cls-2" d="M463,54.09a46.56,46.56,0,0,1-2.59,16,35.21,35.21,0,0,1-7.26,12.17A31.68,31.68,0,0,1,442,90a39.75,39.75,0,0,1-28.75,0A31.56,31.56,0,0,1,402,82.27a35.08,35.08,0,0,1-7.27-12.17,46.8,46.8,0,0,1-2.58-16,46.89,46.89,0,0,1,2.58-16A35,35,0,0,1,402,25.91a32.07,32.07,0,0,1,11.19-7.78,36.55,36.55,0,0,1,14.32-2.75A37.14,37.14,0,0,1,442,18.1a32,32,0,0,1,11.2,7.75,35.16,35.16,0,0,1,7.26,12.2A46.81,46.81,0,0,1,463,54.09Zm-3.12,0a45.72,45.72,0,0,0-2.35-15.15,32.41,32.41,0,0,0-6.62-11.39,28.49,28.49,0,0,0-10.23-7.16,35.86,35.86,0,0,0-26.21,0,28.49,28.49,0,0,0-10.23,7.16,33.12,33.12,0,0,0-6.67,11.39,44.68,44.68,0,0,0-2.4,15.15,44.76,44.76,0,0,0,2.4,15.15,32.48,32.48,0,0,0,6.67,11.33,28.74,28.74,0,0,0,10.23,7.11,35.86,35.86,0,0,0,26.21,0,28.74,28.74,0,0,0,10.23-7.11,31.79,31.79,0,0,0,6.62-11.33A45.8,45.8,0,0,0,459.88,54.09Z"/><path class="cls-2" d="M525.06,18.83H497.34v73.1h-3V18.83H466.5V16.25h58.56Z"/><path class="cls-2" d="M586.76,18.83H559v73.1h-3V18.83H528.19V16.25h58.57Z"/><path class="cls-2" d="M603.28,91.93h-3V16.25h3Z"/></svg>